<?xml version="1.0" encoding="UTF-8"?>
<svg width="41px" height="31px" viewBox="0 0 41 31" version="1.1" xmlns="http://www.w3.org/2000/svg" xmlns:xlink="http://www.w3.org/1999/xlink">
    <!-- Generator: sketchtool 54.1 (76490) - https://sketchapp.com -->
    <title>4E30B071-59AD-429C-B24E-124CF2B9F8A6</title>
    <desc>Created with sketchtool.</desc>
    <g id="Main-UI" stroke="none" stroke-width="1" fill="none" fill-rule="evenodd">
        <g id="Product-page" transform="translate(-590.000000, -1763.000000)" fill="#FFFFFF" stroke="#EF0073">
            <g id="Group-81" transform="translate(590.500000, 1763.000000)">
                <path d="M0.5,30.5 L39.5,30.5 L39.5,16 C39.5,15.1715729 38.8284271,14.5 38,14.5 L2,14.5 C1.17157288,14.5 0.5,15.1715729 0.5,16 L0.5,30.5 Z" id="Rectangle"></path>
                <path d="M5.5,14.5 L34.5,14.5 L34.5,2 C34.5,1.17157288 33.8284271,0.5 33,0.5 L7,0.5 C6.17157288,0.5 5.5,1.17157288 5.5,2 L5.5,14.5 Z" id="Rectangle-Copy-14"></path>
                <path d="M21.5,16.5 L30.5,16.5 L30.5,9 C30.5,8.17157288 29.8284271,7.5 29,7.5 L23,7.5 C22.1715729,7.5 21.5,8.17157288 21.5,9 L21.5,16.5 Z" id="Rectangle-Copy-15"></path>
                <path d="M9.5,16.5 L18.5,16.5 L18.5,9 C18.5,8.17157288 17.8284271,7.5 17,7.5 L11,7.5 C10.1715729,7.5 9.5,8.17157288 9.5,9 L9.5,16.5 Z" id="Rectangle-Copy-16"></path>
                <path d="M0.5,20.5 L39.5,20.5 L39.5,16 C39.5,15.1715729 38.8284271,14.5 38,14.5 L2,14.5 C1.17157288,14.5 0.5,15.1715729 0.5,16 L0.5,20.5 Z" id="Rectangle-Copy-13"></path>
            </g>
        </g>
    </g>
</svg>