<?xml version="1.0" encoding="UTF-8"?>
<svg width="102px" height="98px" viewBox="0 0 102 98" version="1.1" xmlns="http://www.w3.org/2000/svg" xmlns:xlink="http://www.w3.org/1999/xlink">
    <!-- Generator: sketchtool 55.2 (78181) - https://sketchapp.com -->
    <title>E0B691A9-50B5-434E-BFD0-FB39CBE15A98</title>
    <desc>Created with sketchtool.</desc>
    <g id="Dashboard" stroke="none" stroke-width="1" fill="none" fill-rule="evenodd">
        <g id="Notification--page" transform="translate(-820.000000, -349.000000)" fill-rule="nonzero">
            <g id="box" transform="translate(820.000000, 349.000000)">
                <polygon id="Path" fill="#FF2546" points="55.5820313 18.0863217 19.8954164 37.8396036 51 55.0567526 86.6866149 35.3034708"></polygon>
                <polygon id="Path" fill="#EC59A0" points="20.9319762 79.0625481 51.0217896 95.7180296 51.0217896 55.0559682 20.9319762 38.4004867"></polygon>
                <polygon id="Path" fill="#EC59A0" points="87.8414613 75.447794 87.8414613 36.9963178 66.140625 66.5466189 58.5703125 62.8314549 58.5921021 91.6380954"></polygon>
                <g id="Group" transform="translate(7.171875, 2.610656)" fill="#F9C0DB">
                    <polygon id="Path" points="49.6054688 49.8346568 61.3959504 61.7191023 92.8359375 44.3168226 81.0454559 32.432377"></polygon>
                    <polygon id="Path" points="0.133071949 46.9941567 31.8306427 64.5392065 43.828125 52.4453125 12.1305542 34.9002625"></polygon>
                    <polygon id="Path" points="80.6695863 32.0534868 92.755783 19.8717341 61.5726012 2.61065574 49.4864045 14.7939774"></polygon>
                    <polygon id="Path" points="1.39453125 17.1794954 12.9025269 28.7791849 43.828125 11.661661 32.3201294 0.0619717459"></polygon>
                </g>
                <path d="M90.6593171,34.6641425 L101.416351,23.8206648 C101.859924,23.3743116 102.068481,22.7428279 101.979767,22.1176198 C101.89183,21.4924117 101.515961,20.9448642 100.966553,20.6404969 L88.0344544,13.4823739 C87.0702668,12.9489466 85.8593903,13.3043033 85.3294372,14.2762392 C84.8002624,15.2489595 85.1520082,16.4695665 86.116974,17.0029938 L96.7222594,22.873047 L87.4904938,32.1782147 L54.2871094,13.7992924 L63.518097,4.49412457 L72.849472,9.65973991 C73.8136597,10.1931672 75.0253143,9.83859513 75.5544891,8.86587484 C76.084442,7.89393896 75.7319183,6.67254729 74.7669525,6.13912003 L64.1250915,0.247886783 C63.3484497,-0.181992828 62.3834839,-0.0431449016 61.7578125,0.588338984 L51,11.4326013 L40.2421875,0.588338984 C39.615738,-0.0431449016 38.6507721,-0.181208426 37.8749085,0.247886783 L1.03344727,20.6404969 C0.484039406,20.9448642 0.108169605,21.4916271 0.0202330547,22.1176198 C-0.0684814453,22.7428279 0.140075684,23.3743116 0.583648781,23.8206648 L11.3406829,34.6641425 L0.583648781,45.506836 C0.140075684,45.9539734 -0.0684814453,46.5846727 0.0202330547,47.2106654 C0.108169605,47.8358735 0.484039406,48.383421 1.03344727,48.6870037 L12.1663512,54.8496574 L12.1663512,75.447794 C12.1663512,76.1812563 12.5624543,76.8558851 13.1997985,77.2088883 L50.0412598,97.6007141 C50.3400879,97.7662335 50.6700439,97.8486008 51,97.8486008 C51.3299561,97.8486008 51.6599121,97.7662335 51.9587402,97.6007141 L88.8002015,77.2088883 C89.4375457,76.8558851 89.8336488,76.1812563 89.8336488,75.447794 L89.8336488,54.8496574 L100.966553,48.6877881 C101.515961,48.383421 101.89183,47.8358735 101.979767,47.2106654 C102.068481,46.5854571 101.859924,45.9539734 101.416351,45.5076204 L90.6593171,34.6641425 Z M51,52.7645845 L18.2977752,34.6633581 L51,16.5613473 L83.7022248,34.6633581 L51,52.7645845 Z M38.4826813,4.49412457 L47.7128906,13.7992924 L14.5095062,32.1782147 L5.27851873,22.873047 L38.4826813,4.49412457 Z M14.5110627,37.1492859 L47.7144469,55.5282081 L38.4826813,64.8341604 L5.27851873,46.4552382 L14.5110627,37.1492859 Z M85.8492738,74.2601338 L52.9921875,92.4468653 L52.9921875,71.9185451 C52.9921875,70.8093301 52.1003724,69.9103484 51,69.9103484 C49.8996276,69.9103484 49.0078125,70.8093301 49.0078125,71.9185451 L49.0078125,92.4468653 L16.1507262,74.2601338 L16.1507262,57.0555359 L37.8749085,69.0803984 C38.1760711,69.246702 38.5060272,69.328285 38.8328704,69.328285 C39.3488159,69.328285 39.859314,69.1258965 40.2421875,68.7399462 L51,57.8956839 L61.7578125,68.7399462 C62.140686,69.1266809 62.6511841,69.328285 63.1671296,69.328285 C63.4939728,69.328285 63.8239289,69.246702 64.1250915,69.0803984 L85.8492738,57.0555359 L85.8492738,74.2601338 Z M63.518097,64.8341604 L54.2863312,55.5274237 L87.4897155,37.1492859 L96.7222594,46.4544538 L63.518097,64.8341604 Z" id="Shape" fill="#000000"></path>
                <path d="M80.6439056,13.691038 C81.1676332,13.691038 81.6796875,13.4760983 82.0524445,13.1019148 C82.4228669,12.7285155 82.6360931,12.2107775 82.6360931,11.6828413 C82.6360931,11.1541208 82.4228669,10.6363826 82.0524445,10.2629835 C81.6820221,9.88880005 81.1676332,9.67464455 80.6439056,9.67464455 C80.1178436,9.67464455 79.6057892,9.88880005 79.2353669,10.2629835 C78.8626099,10.6363826 78.6517181,11.1541208 78.6517181,11.6828413 C78.6517181,12.2107775 78.8626099,12.7285155 79.2353669,13.1019148 C79.6057892,13.4760983 80.1201782,13.691038 80.6439056,13.691038 Z" id="Path" fill="#000000"></path>
                <path d="M51,63.2432921 C50.4762726,63.2432921 49.9618834,63.4574476 49.5914613,63.8316311 C49.2210387,64.206599 49.0078125,64.7227684 49.0078125,65.2514888 C49.0078125,65.7809939 49.2210387,66.2971631 49.5914613,66.6729155 C49.9618834,67.0463146 50.4762726,67.2596855 51,67.2596855 C51.5237274,67.2596855 52.0381166,67.0463146 52.4085387,66.6729155 C52.7789613,66.2971631 52.9921875,65.7809939 52.9921875,65.2514888 C52.9921875,64.7227684 52.7789613,64.206599 52.4085387,63.8316311 C52.0381166,63.4574476 51.5237274,63.2432921 51,63.2432921 Z" id="Path" fill="#000000"></path>
            </g>
        </g>
    </g>
</svg>