<?xml version="1.0" encoding="UTF-8"?>
<svg width="75px" height="39px" viewBox="0 0 75 39" version="1.1" xmlns="http://www.w3.org/2000/svg" xmlns:xlink="http://www.w3.org/1999/xlink">
    <!-- Generator: sketchtool 54.1 (76490) - https://sketchapp.com -->
    <title>E559447E-EBEA-4B7B-A10E-C68963577F8A</title>
    <desc>Created with sketchtool.</desc>
    <g id="Main-UI" stroke="none" stroke-width="1" fill="none" fill-rule="evenodd">
        <g id="Colive-Desktop" transform="translate(-213.000000, -3240.000000)" fill="#10121B" stroke="#EF0073">
            <g id="icon-1" transform="translate(213.000000, 3240.000000)">
                <g id="Group">
                    <rect id="Rectangle" x="0.5" y="19.5" width="20" height="18" rx="3"></rect>
                    <path d="M6.00753909,9.5 C5.66892274,10.6097606 5.5,11.7171374 5.5,12.8235294 C5.5,14.7127514 5.87350379,16.6040153 6.6224331,18.5 L12.3775669,18.5 C13.1264962,16.6040153 13.5,14.7127514 13.5,12.8235294 C13.5,11.7171374 13.3310773,10.6097606 12.9924609,9.5 L6.00753909,9.5 Z" id="Rectangle"></path>
                    <path d="M5.12337838,0.5 L1.72337838,9.5 L17.2766216,9.5 L13.8766216,0.5 L5.12337838,0.5 Z" id="Rectangle"></path>
                    <path d="M45.5,22.5 L45.5,4 C45.5,3.17157288 44.8284271,2.5 44,2.5 L27,2.5 C25.0670034,2.5 23.5,4.06700338 23.5,6 L23.5,19 C23.5,20.9329966 25.0670034,22.5 27,22.5 L45.5,22.5 Z" id="Rectangle"></path>
                    <path d="M46.5,22.5 L64,22.5 C65.9329966,22.5 67.5,20.9329966 67.5,19 L67.5,6 C67.5,4.06700338 65.9329966,2.5 64,2.5 L48,2.5 C47.1715729,2.5 46.5,3.17157288 46.5,4 L46.5,22.5 Z" id="Rectangle"></path>
                    <path d="M23.5,22.5 L23.5,38.5 L71.5,38.5 L71.5,22.5 L23.5,22.5 Z" id="Rectangle"></path>
                    <path d="M20,12.5 C18.0670034,12.5 16.5,14.0670034 16.5,16 L16.5,35 C16.5,36.9329966 18.0670034,38.5 20,38.5 L25,38.5 C26.9329966,38.5 28.5,36.9329966 28.5,35 L28.5,16 C28.5,14.0670034 26.9329966,12.5 25,12.5 L20,12.5 Z" id="Rectangle"></path>
                    <path d="M66,12.5 C64.0670034,12.5 62.5,14.0670034 62.5,16 L62.5,35 C62.5,36.9329966 64.0670034,38.5 66,38.5 L71,38.5 C72.9329966,38.5 74.5,36.9329966 74.5,35 L74.5,16 C74.5,14.0670034 72.9329966,12.5 71,12.5 L66,12.5 Z" id="Rectangle"></path>
                </g>
            </g>
        </g>
    </g>
</svg>