<svg height="511pt" viewBox="-2 0 511 511.99971" width="511pt" xmlns="http://www.w3.org/2000/svg"><path d="m203.429688 249.648438h22.253906c34.976562 0 63.617187-28.128907 63.871094-63.101563 0-.261719 0-.523437 0-.785156v-70.292969c0-58.207031-47.136719-105.394531-105.28125-105.394531h-8.292969c-58.148438 0-105.285157 47.1875-105.285157 105.394531v70.292969c0 .238281 0 .476562.003907.71875.230469 34.867187 28.722656 62.957031 63.59375 63.105469l22.300781.0625" fill="#ffb03b"/><path d="m250.144531 150.011719v-46.496094c-13.375 0-25.8125-6.867187-32.941406-18.1875l-8.300781-13.183594c-12.296875 19.523438-33.75 31.371094-56.824219 31.371094h-42.210937v46.496094c0 33.515625 14.285156 61.792969 51.960937 70.671875l-4 28.964844h44.355469l-4-28.964844c37.675781-8.878906 51.960937-37.15625 51.960937-70.671875zm0 0" fill="#f5cfb2"/><path d="m209.152344 152.777344c-5.523438 0-10-4.476563-10-9.996094 0-8.558594 6.960937-15.519531 15.519531-15.519531h7.976563c5.519531 0 9.996093 4.476562 9.996093 10 0 5.519531-4.476562 9.996093-9.996093 9.996093h-4.554688c-1.644531 3.273438-5.03125 5.519532-8.941406 5.519532zm0 0"/><path d="m151.097656 152.777344c-3.910156 0-7.296875-2.246094-8.941406-5.519532h-4.554688c-5.519531 0-9.996093-4.476562-9.996093-9.996093 0-5.523438 4.476562-10 9.996093-10h7.976563c8.558594 0 15.519531 6.960937 15.519531 15.519531 0 5.519531-4.476562 9.996094-10 9.996094zm0 0"/><path d="m180.125 199.183594c-6.132812 0-11.898438-2.390625-16.238281-6.726563-3.902344-3.90625-3.902344-10.234375 0-14.140625 3.90625-3.902344 10.238281-3.902344 14.144531 0 .714844.71875 1.535156.867188 2.09375.867188.5625 0 1.378906-.148438 2.097656-.867188 3.902344-3.902344 10.234375-3.902344 14.136719 0 3.90625 3.902344 3.90625 10.234375 0 14.140625-4.335937 4.335938-10.101563 6.726563-16.234375 6.726563zm0 0"/><path d="m292.339844 332.035156h-224.429688v-65.820312c0-9.148438 7.414063-16.566406 16.5625-16.566406h191.300782c9.148437 0 16.566406 7.414062 16.566406 16.566406zm0 0" fill="#93d3f1"/><path d="m22.007812 332.035156h457.910157v169.964844h-457.910157zm0 0" fill="#a47968"/><path d="m425.925781 332.035156h-61.980469v-12c0-17.117187 13.875-30.992187 30.992188-30.992187 17.113281 0 30.988281 13.875 30.988281 30.992187zm0 0" fill="#ffdd73"/><path d="m280.625 372.03125h-198.3125c-4.367188 8.785156-11.523438 15.941406-20.3125 20.308594v109.660156h377.925781v-109.660156c-8.785156-4.367188-15.941406-11.523438-20.308593-20.308594h-40.914063" fill="#c58c7a"/><path d="m331.089844 382.027344c-.648438 0-1.308594-.066406-1.949219-.199219-.640625-.117187-1.269531-.320313-1.878906-.570313-.601563-.25-1.179688-.558593-1.71875-.917968-.550781-.359375-1.0625-.78125-1.519531-1.242188-1.863282-1.859375-2.929688-4.4375-2.929688-7.066406 0-.652344.070312-1.3125.199219-1.949219.121093-.640625.320312-1.269531.570312-1.871093.25-.609376.558594-1.191407.917969-1.730469.359375-.550781.78125-1.058594 1.242188-1.519531.457031-.460938.96875-.878907 1.519531-1.238282.539062-.371094 1.117187-.671875 1.71875-.921875.609375-.25 1.238281-.449219 1.878906-.570312 1.289063-.257813 2.609375-.257813 3.898437 0 .640626.121093 1.269532.320312 1.871094.570312.609375.25 1.191406.550781 1.730469.921875.550781.359375 1.058594.777344 1.519531 1.238282 1.859375 1.859374 2.929688 4.441406 2.929688 7.070312s-1.070313 5.207031-2.929688 7.066406c-.460937.460938-.96875.882813-1.519531 1.242188-.539063.359375-1.121094.667968-1.730469.917968-.601562.25-1.230468.453126-1.871094.570313-.636718.132813-1.296874.199219-1.949218.199219zm0 0"/><path d="m372.046875 31.5c-28.566406 28.566406-28.566406 74.886719 0 103.453125 28.570313 28.566406 74.886719 28.566406 103.453125 0 22.363281-22.359375 27.21875-55.59375 14.578125-82.679687-3.511719-7.519532-8.371094-14.566407-14.578125-20.773438-6.808594-6.8125-14.628906-11.996094-22.976562-15.5625-26.664063-11.382812-58.71875-6.195312-80.476563 15.5625zm0 0" fill="#fff"/><path d="m423.773438 166.378906c-22.207032 0-43.089844-8.652344-58.792969-24.355468-15.707031-15.707032-24.355469-36.585938-24.355469-58.796876 0-22.210937 8.648438-43.09375 24.355469-58.796874 24.152343-24.152344 60.054687-31.097657 91.46875-17.6875 5.078125 2.167968 7.4375 8.042968 5.269531 13.121093-2.167969 5.082031-8.042969 7.4375-13.121094 5.273438-23.859375-10.1875-51.132812-4.914063-69.480468 13.433593-11.925782 11.929688-18.496094 27.789063-18.496094 44.65625 0 16.871094 6.570312 32.730469 18.496094 44.65625 11.929687 11.929688 27.789062 18.5 44.65625 18.5 16.871093 0 32.730468-6.570312 44.65625-18.5 18.722656-18.71875 23.777343-47.40625 12.585937-71.382812-2.335937-5-.171875-10.953125 4.832031-13.289062 5.003906-2.332032 10.953125-.171876 13.289063 4.832031 14.734375 31.570312 8.078125 69.335937-16.566407 93.980469-15.703124 15.703124-36.585937 24.355468-58.796874 24.355468zm0 0"/><path d="m452.527344 102.117188h-28.753906c-5.519532 0-9.996094-4.476563-9.996094-10v-39.847657c0-5.523437 4.476562-10 9.996094-10 5.523437 0 10 4.476563 10 10v29.851563h18.753906c5.519531 0 9.996094 4.476562 9.996094 9.996094 0 5.523437-4.476563 10-9.996094 10zm0 0"/><path d="m180.191406 303.53125-39.589844-53.988281h79.183594zm0 0" fill="#fff"/><path d="m491.425781 322.039062h-55.5v-2.003906c0-19.152344-13.207031-35.28125-30.992187-39.753906v-5.242188c0-5.523437-4.476563-10-10-10-5.519532 0-9.996094 4.476563-9.996094 10v5.242188c-17.785156 4.472656-30.992188 20.601562-30.992188 39.753906v2.003906h-51.609374v-55.824218c0-14.507813-11.6875-26.335938-26.144532-26.5625 14.234375-13.320313 23.207032-32.175782 23.359375-53.050782v-71.132812c0-63.628906-51.714843-115.3945312-115.28125-115.3945312h-8.289062c-63.570313 0-115.285157 51.7656252-115.285157 115.3945312v70.292969l.003907.785156c.136719 20.878906 9.148437 39.769531 23.445312 53.105469-14.496093.179687-26.234375 12.023437-26.234375 26.5625v55.824218h-47.410156c-5.523438 0-10 4.476563-10 9.996094 0 5.523438 4.476562 10 10 10h1.507812v159.964844c0 5.523438 4.476563 10 10 10h457.910157c5.523437 0 10-4.476562 10-10v-159.964844h1.507812c5.523438 0 10-4.476562 10-10 0-5.519531-4.476562-9.996094-10-9.996094zm-117.480469-2.003906c0-11.578125 9.414063-20.992187 20.992188-20.992187 11.574219 0 20.992188 9.414062 20.992188 20.992187v2h-41.984376zm-293.25-133.636718-.003906-70.929688c0-52.601562 42.746094-95.394531 95.289063-95.394531h8.289062c52.542969 0 95.285157 42.792969 95.285157 95.394531v71.003906c-.214844 29.320313-24.378907 53.175782-53.871094 53.175782l-14.800782-.105469-1.609374-11.640625c32.894531-11.160156 50.867187-38.492188 50.867187-77.890625v-46.496094c0-5.523437-4.476563-10-9.996094-10-10 0-19.152343-5.050781-24.480469-13.515625l-8.304687-13.183594c-1.828125-2.90625-5.023437-4.667968-8.460937-4.667968-3.433594 0-6.628907 1.761718-8.460938 4.667968-10.523438 16.71875-28.605469 26.699219-48.359375 26.699219h-42.214844c-5.519531 0-9.996093 4.476563-9.996093 10v46.496094c0 39.398437 17.972656 66.734375 50.871093 77.890625l-1.609375 11.640625-14.792968.042969c-29.382813-.125-53.445313-23.976563-53.640626-53.1875zm83.425782 24.554687c-29.367188-6.921875-44.257813-27.425781-44.257813-60.941406v-36.5h32.214844c21.507813 0 41.546875-8.761719 55.949219-23.992188l.714844 1.136719c7.199218 11.429688 18.519531 19.183594 31.402343 21.839844v37.515625c0 33.515625-14.886719 54.019531-44.253906 60.941406-5.019531 1.183594-8.316406 5.988281-7.609375 11.097656l2.414062 17.492188h-21.378906l2.414063-17.492188c.707031-5.109375-2.589844-9.917969-7.609375-11.097656zm35.855468 48.691406-19.785156 26.980469-19.785156-26.980469zm-122.070312 6.570313c0-3.621094 2.945312-6.566406 6.566406-6.566406h51.136719l36.519531 49.796874c1.882813 2.570313 4.875 4.085938 8.0625 4.085938 3.183594 0 6.179688-1.515625 8.0625-4.085938l36.519532-49.796874h51c3.621093 0 6.566406 2.945312 6.566406 6.566406v55.824218h-204.433594zm392.015625 225.789062h-19.996094v-99.664062c0-3.792969-2.148437-7.261719-5.550781-8.953125-6.808594-3.382813-12.421875-8.996094-15.808594-15.804688-1.6875-3.398437-5.15625-5.550781-8.949218-5.550781h-40.914063c-5.523437 0-9.996094 4.476562-9.996094 10 0 5.519531 4.472657 9.996094 9.996094 9.996094h35.136719c4.183594 6.398437 9.6875 11.90625 16.089844 16.089844v93.886718h-357.929688v-93.886718c6.398438-4.183594 11.902344-9.6875 16.085938-16.089844h192.539062c5.523438 0 10-4.476563 10-9.996094 0-5.523438-4.476562-10-10-10h-198.3125c-3.796875 0-7.265625 2.148438-8.953125 5.550781-3.386719 6.808594-9 12.421875-15.808594 15.804688-3.398437 1.691406-5.546875 5.160156-5.546875 8.953125v99.664062h-20v-149.96875h437.917969zm0 0"/></svg>