<?xml version="1.0" encoding="UTF-8"?>
<svg width="40px" height="34px" viewBox="0 0 40 34" version="1.1" xmlns="http://www.w3.org/2000/svg" xmlns:xlink="http://www.w3.org/1999/xlink">
    <!-- Generator: sketchtool 54.1 (76490) - https://sketchapp.com -->
    <title>0E832CA4-DF8E-4464-B570-FB7D3C05FFC4</title>
    <desc>Created with sketchtool.</desc>
    <g id="Main-UI" stroke="none" stroke-width="1" fill="none" fill-rule="evenodd">
        <g id="Product-page" transform="translate(-733.000000, -1879.000000)" stroke="#EF0073">
            <g id="Group-68" transform="translate(733.000000, 1880.000000)">
                <path d="M13.5714286,28.6956522 L13.5714286,31.9946714" id="Path-16" stroke-linecap="round" stroke-linejoin="round"></path>
                <path d="M26.4285714,28.6956522 L26.4285714,31.9946714" id="Path-16-Copy" stroke-linecap="round" stroke-linejoin="round"></path>
                <path d="M3.35714286,14.8478261 L3.35714286,20.1344348 C3.35714286,25.3789308 7.60864687,29.6304348 12.8531429,29.6304348 L27.1468571,29.6304348 C32.3913531,29.6304348 36.6428571,25.3789308 36.6428571,20.1344348 L36.6428571,14.8478261 L3.35714286,14.8478261 Z" id="Rectangle" fill="#FFFFFF"></path>
                <rect id="Rectangle" fill="#FFFFFF" x="0.5" y="13.4130435" width="39" height="4.73913043" rx="2.36956522"></rect>
                <g id="Group-67" transform="translate(5.714286, 0.000000)" stroke-linecap="round">
                    <path d="M0,10.0434783 L0,2.86956522 C0,1.28474811 1.27918643,0 2.85714286,0 C4.43509929,0 5.71428571,1.28474811 5.71428571,2.86956522" id="Shape"></path>
                    <path d="M4.28571429,3.26539147 L7.14285714,3.26539147" id="Path-17" stroke-linejoin="round"></path>
                </g>
            </g>
        </g>
    </g>
</svg>