<?xml version="1.0" encoding="UTF-8"?>
<svg width="39px" height="30px" viewBox="0 0 39 30" version="1.1" xmlns="http://www.w3.org/2000/svg" xmlns:xlink="http://www.w3.org/1999/xlink">
    <!-- Generator: sketchtool 54.1 (76490) - https://sketchapp.com -->
    <title>FD4747FD-8E9C-4992-A8A8-2DDCBB01C276</title>
    <desc>Created with sketchtool.</desc>
    <g id="Main-UI" stroke="none" stroke-width="1" fill="none" fill-rule="evenodd">
        <g id="Product-page" transform="translate(-591.000000, -1881.000000)" stroke="#EF0073">
            <g id="Group-87" transform="translate(591.000000, 1881.000000)">
                <g id="Group-69">
                    <path d="M10.8164841,7.31818182 L3.91118358,29.5 L15.3214286,29.5 C18.1246462,29.5 20.3928571,27.2793739 20.3928571,24.5454545 L20.3928571,12.2727273 C20.3928571,9.53880795 18.1246462,7.31818182 15.3214286,7.31818182 L10.8164841,7.31818182 Z" id="Path"></path>
                    <path d="M6.87049868,3.22727273 L4.40864288,25.4090909 L13.9285714,25.4090909 C15.1932815,25.4090909 16.2142857,24.4095064 16.2142857,23.1818182 L16.2142857,5.45454545 C16.2142857,4.22685727 15.1932815,3.22727273 13.9285714,3.22727273 L6.87049868,3.22727273 Z" id="Path"></path>
                    <path d="M7.32309904,0.5 L3.34014642,12.2864012 L5.8324585,15.8636364 L31.5357143,15.8636364 L31.5357143,0.5 L7.32309904,0.5 Z" id="Rectangle" fill="#FFFFFF"></path>
                    <path d="M4.49077161,0.5 L0.5,8.66830177 L0.5,13.1363636 L21.5770516,13.1363636 L25.4835806,3.59090909 L37.2491944,3.59090909 L38.3015754,0.5 L4.49077161,0.5 Z" id="Rectangle" fill="#FFFFFF"></path>
                    <path d="M22.3615461,11.7114258 L31.1620307,11.7114258" id="Path-18"></path>
                    <path d="M36.8289315,3.62881747 L31.47229,13.6363636" id="Path-19"></path>
                </g>
            </g>
        </g>
    </g>
</svg>