<?xml version="1.0" encoding="UTF-8"?>
<svg width="41px" height="41px" viewBox="0 0 41 41" version="1.1" xmlns="http://www.w3.org/2000/svg" xmlns:xlink="http://www.w3.org/1999/xlink">
    <!-- Generator: sketchtool 54.1 (76490) - https://sketchapp.com -->
    <title>06AB2CDE-E271-4B03-A51B-0A8EF947610E</title>
    <desc>Created with sketchtool.</desc>
    <defs>
        <linearGradient x1="50%" y1="0%" x2="162.291218%" y2="150.188578%" id="linearGradient-1">
            <stop stop-color="#FF2546" offset="0%"></stop>
            <stop stop-color="#4236F4" offset="100%"></stop>
        </linearGradient>
    </defs>
    <g id="Main-UI" stroke="none" stroke-width="1" fill="none" fill-rule="evenodd">
        <g id="Product-page" transform="translate(-213.000000, -1375.000000)" fill-rule="nonzero">
            <g id="Group-52" transform="translate(197.000000, 1360.000000)">
                <g id="discount" transform="translate(16.000000, 15.000000)">
                    <path d="M39.1163421,20.5014193 L40.9151636,15.8098067 C41.1124703,15.2922175 40.9587248,14.7054457 40.5256752,14.3544075 L36.6256662,11.1925014 L35.8364397,6.22928256 C35.7493172,5.68094553 35.31883,5.25303766 34.7704713,5.16591869 L29.8070564,4.37672333 L26.6475879,0.474306041 C26.2990982,0.0412735242 25.6994911,-0.112465831 25.1946936,0.0848330081 L20.5003332,1.88614578 L15.8085352,0.0873953307 C15.2883631,-0.112465831 14.7066929,0.0463981694 14.3556409,0.476868363 L11.1936099,4.37928566 L6.23019498,5.16848101 C5.68439871,5.25559998 5.25391151,5.68607017 5.1667891,6.23184488 L4.37756257,11.1950637 L0.474991106,14.3569698 C0.0445039063,14.7054457 -0.111803946,15.2922175 0.0855026872,15.8098067 L1.8843242,20.5014193 L0.0855026872,25.193032 C-0.11436637,25.7106212 0.0445039063,26.297393 0.474991106,26.6458689 L4.37756257,29.8052126 L5.1667891,34.7684315 C5.25391151,35.3167685 5.68183628,35.7472387 6.23019498,35.8343577 L11.1936099,36.623553 L14.3556409,40.523408 C14.7066929,40.9590028 15.293488,41.1127422 15.8110976,40.912881 L20.5003332,39.1166929 L25.1921312,40.9154434 C25.3407517,40.9718145 25.4944972,41 25.650805,41 C26.0274813,41 26.3990328,40.833449 26.6475879,40.523408 L29.8070564,36.623553 L34.7704713,35.8343577 C35.31883,35.7472387 35.7493172,35.3167685 35.8364397,34.7684315 L36.6256662,29.8052126 L40.5256752,26.6458689 C40.9587248,26.2948307 41.1124703,25.7106212 40.9151636,25.193032 L39.1163421,20.5014193 Z" id="Path" fill="url(#linearGradient-1)"></path>
                    <g id="Group" transform="translate(12.724138, 9.896552)" fill="#FAFAFA">
                        <path d="M3.86955905,7.66037938 C1.73711953,7.66037938 0.00177273539,5.94252724 0.00177273539,3.8315856 C0.00177273539,1.72064397 1.73711953,0.00279182879 3.86955905,0.00279182879 C6.00199857,0.00279182879 7.73734536,1.72064397 7.73734536,3.8315856 C7.73734536,5.94252724 6.00199857,7.66037938 3.86955905,7.66037938 Z M3.86955905,2.55532101 C3.15788637,2.55532101 2.58029694,3.12708755 2.58029694,3.8315856 C2.58029694,4.53608366 3.15788637,5.10785019 3.86955905,5.10785019 C4.58123173,5.10785019 5.15882115,4.53608366 5.15882115,3.8315856 C5.15882115,3.12708755 4.58123173,2.55532101 3.86955905,2.55532101 Z" id="Shape"></path>
                        <path d="M11.6051317,20.4230253 C9.47269216,20.4230253 7.73734536,18.7051732 7.73734536,16.5942315 C7.73734536,14.4832899 9.47269216,12.7654377 11.6051317,12.7654377 C13.7375712,12.7654377 15.472918,14.4832899 15.472918,16.5942315 C15.472918,18.7051732 13.7375712,20.4230253 11.6051317,20.4230253 Z M11.6051317,15.3179669 C10.8960375,15.3179669 10.3158696,15.892286 10.3158696,16.5942315 C10.3158696,17.296177 10.8960375,17.8704961 11.6051317,17.8704961 C12.3142258,17.8704961 12.8943938,17.296177 12.8943938,16.5942315 C12.8943938,15.892286 12.3142258,15.3179669 11.6051317,15.3179669 Z" id="Shape"></path>
                        <path d="M1.29103484,20.4230253 C1.03060389,20.4230253 0.77017295,20.3464494 0.543262819,20.1856401 C-0.0369051277,19.7746829 -0.170988387,18.9782938 0.244154011,18.4039747 L13.1367751,0.536270428 C13.5519175,-0.0380486381 14.356417,-0.170780156 14.936585,0.240177043 C15.5167529,0.648581712 15.6482576,1.44752335 15.2356938,2.01928988 L2.34307272,19.8869942 C2.08779882,20.2366907 1.69328462,20.4230253 1.29103484,20.4230253 Z" id="Path"></path>
                    </g>
                </g>
            </g>
        </g>
    </g>
</svg>