<?xml version="1.0" encoding="UTF-8"?>
<svg width="32px" height="40px" viewBox="0 0 32 40" version="1.1" xmlns="http://www.w3.org/2000/svg" xmlns:xlink="http://www.w3.org/1999/xlink">
    <!-- Generator: sketchtool 54.1 (76490) - https://sketchapp.com -->
    <title>B9E72740-6292-45DB-BEE9-EBF049BEEC06</title>
    <desc>Created with sketchtool.</desc>
    <g id="Main-UI" stroke="none" stroke-width="1" fill="none" fill-rule="evenodd">
        <g id="Product-page" transform="translate(-176.000000, -1875.000000)" stroke="#EF0073">
            <g id="Group-90" transform="translate(177.000000, 1876.000000)">
                <rect id="Rectangle" fill="#FFFFFF" x="0" y="34" width="3" height="2"></rect>
                <path d="M20.1791556,38.0820312 L30.1791556,38.0820312 L30.1791556,37.5820312 C30.1791556,36.2013194 29.0598674,35.0820312 27.6791556,35.0820312 L22.6791556,35.0820312 C21.2984437,35.0820312 20.1791556,36.2013194 20.1791556,37.5820312 L20.1791556,38.0820312 Z" id="Rectangle" fill="#FFFFFF"></path>
                <path d="M23.1791556,35.0820312 L27.1791556,35.0820312 L27.1791556,33.5820312 C27.1791556,33.3058889 26.9552979,33.0820312 26.6791556,33.0820312 L23.6791556,33.0820312 C23.4030132,33.0820312 23.1791556,33.3058889 23.1791556,33.5820312 L23.1791556,35.0820312 Z" id="Rectangle" fill="#FFFFFF"></path>
                <path d="M24.2409019,33.5820312 L24.2409019,7.37045093 C24.2409019,4.40443278 21.8364691,2 18.8704509,2 L18.8704509,2 C15.9044328,2 13.5,4.40443278 13.5,7.37045093 L13.5,33.5820312" id="Path-22"></path>
                <path d="M26.2409019,33.5820313 L26.2409019,7.37045093 C26.2409019,3.29986328 22.9410386,-7.18020284e-14 18.8704509,-7.10542736e-14 L18.8704509,-7.10542736e-14 C14.7998633,-7.03065188e-14 11.5,3.29986328 11.5,7.37045093 L11.5,33.5820313" id="Path-22-Copy"></path>
                <path d="M8,21.5 C4.96243388,21.5 2.5,23.9624339 2.5,27 L2.5,37 C2.5,37.8284271 3.17157288,38.5 4,38.5 L12,38.5 C12.8284271,38.5 13.5,37.8284271 13.5,37 L13.5,23 C13.5,22.1715729 12.8284271,21.5 12,21.5 L8,21.5 Z" id="Rectangle" fill="#FFFFFF"></path>
                <g id="Group-73" transform="translate(8.000000, 30.500000)" fill="#FFFFFF">
                    <circle id="Oval" cx="4" cy="4" r="4"></circle>
                    <circle id="Oval-Copy-15" cx="4" cy="4" r="2"></circle>
                </g>
            </g>
        </g>
    </g>
</svg>