<?xml version="1.0" encoding="UTF-8"?>
<svg width="24px" height="22px" viewBox="0 0 24 22" version="1.1" xmlns="http://www.w3.org/2000/svg" xmlns:xlink="http://www.w3.org/1999/xlink">
    <!-- Generator: sketchtool 54.1 (76490) - https://sketchapp.com -->
    <title>D9DEA0AC-DC69-4E84-86B1-E2E2B46CDA54</title>
    <desc>Created with sketchtool.</desc>
    <g id="Main-UI" stroke="none" stroke-width="1" fill="none" fill-rule="evenodd">
        <g id="Product-page" transform="translate(-837.000000, -598.000000)" fill="#FFFFFF" fill-rule="nonzero" stroke="#DCE0E2">
            <g id="valentines-heart-copy-2" transform="translate(838.000000, 599.000000)">
                <path d="M22,6.23481781 C22,2.79136677 19.3400539,0 16.0588895,0 C13.9163499,0 12.0452388,1.19414455 10.999933,2.97875431 C9.95476123,1.19414455 8.08284641,0 5.9403514,0 C2.65918708,0 0,2.79136677 0,6.23481781 C0,8.10958352 0.791603328,9.78684023 2.03921911,10.9290186 L10.4577903,19.7643481 C10.601564,19.9152328 10.7965514,20 10.999933,20 C11.2033147,20 11.3983021,19.9152328 11.5420757,19.7643481 L19.9606469,10.9290186 C21.2083074,9.78684023 22,8.10958352 22,6.23481781 Z" id="Path"></path>
            </g>
        </g>
    </g>
</svg>