<?xml version="1.0" encoding="UTF-8"?>
<svg width="41px" height="30px" viewBox="0 0 41 30" version="1.1" xmlns="http://www.w3.org/2000/svg" xmlns:xlink="http://www.w3.org/1999/xlink">
    <!-- Generator: sketchtool 54.1 (76490) - https://sketchapp.com -->
    <title>C61FD82E-DAE2-43ED-A92B-FD79058C9D61</title>
    <desc>Created with sketchtool.</desc>
    <g id="Main-UI" stroke="none" stroke-width="1" fill="none" fill-rule="evenodd">
        <g id="Product-page" transform="translate(-733.000000, -1763.000000)" stroke="#EF0073">
            <g id="Group-82" transform="translate(733.333333, 1763.000000)">
                <path d="M5.5,14.5 L20.5,14.5 L20.5,2 C20.5,1.17157288 19.8284271,0.5 19,0.5 L7,0.5 C6.17157288,0.5 5.5,1.17157288 5.5,2 L5.5,14.5 Z" id="Rectangle" fill="#FFFFFF"></path>
                <path d="M19.5,14.5 L34.5,14.5 L34.5,2 C34.5,1.17157288 33.8284271,0.5 33,0.5 L21,0.5 C20.1715729,0.5 19.5,1.17157288 19.5,2 L19.5,14.5 Z" id="Rectangle-Copy-21" fill="#FFFFFF"></path>
                <path d="M0.5,29.5 L6.5,29.5 L6.5,9 C6.5,8.17157288 5.82842712,7.5 5,7.5 L2,7.5 C1.17157288,7.5 0.5,8.17157288 0.5,9 L0.5,29.5 Z" id="Rectangle" fill="#FFFFFF"></path>
                <path d="M33.5,29.5 L39.5,29.5 L39.5,9 C39.5,8.17157288 38.8284271,7.5 38,7.5 L35,7.5 C34.1715729,7.5 33.5,8.17157288 33.5,9 L33.5,29.5 Z" id="Rectangle-Copy-19" fill="#FFFFFF"></path>
                <rect id="Rectangle-Copy-20" fill="#FFFFFF" x="6.5" y="14.5" width="27" height="8"></rect>
                <rect id="Rectangle" fill="#FFFFFF" x="6.5" y="19.5" width="27" height="10"></rect>
                <path d="M11,7.5 L14.5234375,7.5" id="Path-10" stroke-linecap="round" stroke-linejoin="round"></path>
                <path d="M26,7.5 L29.5234375,7.5" id="Path-10-Copy-3" stroke-linecap="round" stroke-linejoin="round"></path>
            </g>
        </g>
    </g>
</svg>