<?xml version="1.0" encoding="UTF-8"?>
<svg width="66px" height="38px" viewBox="0 0 66 38" version="1.1" xmlns="http://www.w3.org/2000/svg" xmlns:xlink="http://www.w3.org/1999/xlink">
    <!-- Generator: sketchtool 54.1 (76490) - https://sketchapp.com -->
    <title>D4773CC2-AC79-456E-B58E-EBE6A6C723B9</title>
    <desc>Created with sketchtool.</desc>
    <g id="Main-UI" stroke="none" stroke-width="1" fill="none" fill-rule="evenodd">
        <g id="Colive-Desktop" transform="translate(-607.000000, -3244.000000)" fill="#10121B" stroke="#EF0073">
            <g id="icon2" transform="translate(607.000000, 3244.000000)">
                <g id="Group" transform="translate(0.000000, 0.000000)">
                    <rect id="Rectangle" x="3" y="32.5" width="60" height="5"></rect>
                    <path d="M17.9601607,7.04805155 C31.1467777,10.0164987 40.6663619,11.5 46.5,11.5 C52.3020158,11.5 58.3618414,9.73005835 64.6822124,6.18186254 C57.4752328,4.39336119 51.0805641,3.5 45.5,3.5 C39.9441206,3.5 30.758809,4.68237433 17.9601638,7.04805098 Z" id="Path-248"></path>
                    <path d="M0.53711072,5.19098872 L4.92605896,32.5 L61.0764365,32.5 L65.3631886,6.77948713 C60.4163237,8.59531883 54.1293868,9.5 46.5,9.5 C41.3888672,9.5 37.9904466,8.31984108 31.3363843,4.94595034 C31.0470061,4.7991934 31.0470061,4.7991934 30.7580464,4.6527736 C24.7355689,1.60302798 21.5268398,0.5 17,0.5 C9.58743041,0.5 4.10515134,2.07189052 0.53711072,5.19098872 Z" id="Path-247"></path>
                    <path d="M44.109902,25 L44.909902,29 L49.390098,29 L48.590098,25 L44.109902,25 Z" id="Path-250" transform="translate(46.750000, 27.000000) scale(-1, 1) translate(-46.750000, -27.000000) "></path>
                    <path d="M51.609902,25 L52.409902,29 L56.890098,29 L56.090098,25 L51.609902,25 Z" id="Path-250" transform="translate(54.250000, 27.000000) scale(-1, 1) translate(-54.250000, -27.000000) "></path>
                    <path d="M12.1182159,18 C9.07972842,19.5691179 7.9764723,24.3809633 8.94242785,32.5 L17.0918633,32.5 C17.7646529,29.2778965 18.7483933,26.2100079 20.0430942,23.2969308 C21.0882695,20.9452865 22.7271223,19.1766153 24.9454341,18 C17.2709344,18 16.7801281,18 12.1182159,18 Z" id="Path-251"></path>
                    <path d="M13.7750596,13.5 C17.9181265,15.8696001 22.5692385,22.2033852 27.8069645,32.5 L36.8899093,32.5 C36.1559095,28.8965553 35.1964812,25.2670078 34.0115417,21.6113139 C32.807712,17.8973413 30.8264894,15.2010025 28.064982,13.5 C19.1160453,13.5 17.5320209,13.5 13.7750596,13.5 Z" id="Path-251"></path>
                    <path d="M28.75863,32.5 C23.571109,19.7978423 17.9561374,13.5 12,13.5 C6.1993655,13.5 4.74847418,19.6979161 7.8912383,32.5 L10.912161,32.5 C9.65722987,24.574882 10.409411,20.5 13.5,20.5 C16.4094267,20.5 19.7810502,24.5063907 23.8084905,32.5 L28.75863,32.5 Z" id="Path-252"></path>
                </g>
            </g>
        </g>
    </g>
</svg>