<?xml version="1.0" encoding="UTF-8"?>
<svg width="80px" height="81px" viewBox="0 0 80 81" version="1.1" xmlns="http://www.w3.org/2000/svg" xmlns:xlink="http://www.w3.org/1999/xlink">
    <!-- Generator: sketchtool 54.1 (76490) - https://sketchapp.com -->
    <title>E1B7C998-3F06-46AA-AED4-274CC801ED73</title>
    <desc>Created with sketchtool.</desc>
    <g id="Main-UI" stroke="none" stroke-width="1" fill="none" fill-rule="evenodd">
        <g id="scheduled-visit-details" transform="translate(-1060.000000, -229.000000)">
            <g id="delivery,-shipping,-shipment,-confirm,-accept-3" transform="translate(1061.000000, 231.000000)">
                <g id="delivery,-shipping,-shipment,-confirm,-accept-2">
                    <g id="delivery,-shipping,-shipment,-confirm,-accept">
                        <path d="M49.6666667,19.6161017 L49.6666667,19.6161017 C49.6666667,19.4420927 49.7354998,19.2752107 49.8580236,19.1521677 C49.9805473,19.0291248 50.1467252,18.96 50.32,18.96 L53.8133333,18.96 C54.4171647,18.96 54.9066667,19.4515762 54.9066667,20.0579661 L54.9066667,20.0579661 C54.9066667,20.664356 54.4171647,21.1559322 53.8133333,21.1559322 L52.0133333,21.1559322 C51.6525073,21.1559322 51.36,21.4496789 51.36,21.8120339 L51.36,21.8120339 C51.36,22.1743889 51.0674927,22.4681356 50.7066667,22.4681356 L47.2133333,22.4681356 C46.609502,22.4681356 46.12,21.9765594 46.12,21.3701695 L46.12,21.3701695 C46.12,20.7637796 46.609502,20.2722034 47.2133333,20.2722034 L48.96,20.2722034 C49.1423143,20.2872003 49.3225391,20.2247546 49.4568558,20.1000489 C49.5911724,19.9753432 49.6672773,19.7998007 49.6666667,19.6161017 Z" id="Path" fill="#E4F4FA" fill-rule="nonzero"></path>
                        <path d="M55.9333333,24.5569492 L55.9333333,24.5569492 C55.9333333,24.3498892 55.7661863,24.1820339 55.56,24.1820339 L53.52,24.1820339 C53.1739016,24.1820339 52.8933333,24.463791 52.8933333,24.8113559 L52.8933333,24.8113559 C52.8933333,25.1589209 53.1739016,25.440678 53.52,25.440678 L54.5333333,25.440678 C54.7395196,25.440678 54.9066667,25.6085332 54.9066667,25.8155932 L54.9066667,25.8155932 C54.9066667,25.9150269 54.9459999,26.0103881 55.0160135,26.0806983 C55.086027,26.1510086 55.1809858,26.1905085 55.28,26.1905085 L57.3066667,26.1905085 C57.6527651,26.1905085 57.9333333,25.9087514 57.9333333,25.5611864 L57.9333333,25.5611864 C57.9333333,25.2136215 57.6527651,24.9318644 57.3066667,24.9318644 L56.3333333,24.9318644 C56.2297857,24.9393114 56.1278262,24.9031242 56.0519333,24.8319907 C55.9760404,24.7608571 55.9330681,24.6612015 55.9333333,24.5569492 Z" id="Path" fill="#E4F4FA" fill-rule="nonzero"></path>
                        <ellipse id="Oval" fill="#D9EBF4" fill-rule="nonzero" cx="64.36" cy="26.6457627" rx="1" ry="1"></ellipse>
                        <ellipse id="Oval" fill="#D9EBF4" fill-rule="nonzero" cx="50.48" cy="26.86" rx="1" ry="1"></ellipse>
                        <ellipse id="Oval" fill="#D9EBF4" fill-rule="nonzero" cx="46.12" cy="28.6542373" rx="1.41333333" ry="1.41932203"></ellipse>
                        <ellipse id="Oval" fill="#D9EBF4" fill-rule="nonzero" cx="45.28" cy="17.6745763" rx="1" ry="1"></ellipse>
                        <ellipse id="Oval" fill="#D9EBF4" fill-rule="nonzero" cx="59.6266667" cy="28.6542373" rx="1" ry="1"></ellipse>
                        <ellipse id="Oval" fill="#D9EBF4" fill-rule="nonzero" cx="55.4266667" cy="30.4083051" rx="1.46666667" ry="1.47288136"></ellipse>
                        <ellipse id="Oval" fill="#D9EBF4" fill-rule="nonzero" cx="61.12" cy="24.6774576" rx="1" ry="1"></ellipse>
                        <path d="M71.2533333,3.32067797 L71.2533333,3.32067797 C71.2533333,2.85479302 70.8772525,2.47711864 70.4133333,2.47711864 L65.9333333,2.47711864 C65.1969537,2.47711864 64.6,3.07660178 64.6,3.81610169 L64.6,3.81610169 C64.6,4.55560161 65.1969537,5.15508475 65.9333333,5.15508475 L68.1733333,5.15508475 C68.6372525,5.15508475 69.0133333,5.53275912 69.0133333,5.99864407 L69.0133333,5.99864407 C69.0133333,6.46452902 69.3894141,6.84220339 69.8533333,6.84220339 L74.3333333,6.84220339 C75.069713,6.84220339 75.6666667,6.24272026 75.6666667,5.50322034 L75.6666667,5.50322034 C75.6666667,4.76372042 75.069713,4.16423729 74.3333333,4.16423729 L72.0933333,4.16423729 C71.8705515,4.16423729 71.6568942,4.07536254 71.4993636,3.91716448 C71.3418331,3.75896642 71.2533333,3.54440381 71.2533333,3.32067797 L71.2533333,3.32067797 Z" id="Path" fill="#E4F4FA" fill-rule="nonzero"></path>
                        <path d="M63.1466667,9.66745763 L63.1466667,9.66745763 C63.1430653,9.5373104 63.1920422,9.41123493 63.282453,9.31791903 C63.3728637,9.22460313 63.4970186,9.17198366 63.6266667,9.1720339 L66.2266667,9.1720339 C66.6758583,9.1720339 67.04,9.53771861 67.04,9.98881356 L67.04,9.98881356 C67.04,10.4399085 66.6758583,10.8055932 66.2266667,10.8055932 L64.8933333,10.8055932 C64.7613882,10.8018585 64.6337345,10.8528545 64.5403982,10.9465863 C64.4470619,11.0403181 64.396281,11.1685127 64.4,11.3010169 L64.4,11.3010169 C64.4,11.5746319 64.1791271,11.7964407 63.9066667,11.7964407 L61.3733333,11.7964407 C60.9241417,11.7964407 60.56,11.430756 60.56,10.979661 L60.56,10.979661 C60.56,10.5285661 60.9241417,10.1628814 61.3733333,10.1628814 L62.7066667,10.1628814 C62.9612412,10.1416284 63.1546407,9.92386772 63.1466667,9.66745763 L63.1466667,9.66745763 Z" id="Path" fill="#E4F4FA" fill-rule="nonzero"></path>
                        <ellipse id="Oval" fill="#D9EBF4" fill-rule="nonzero" cx="52.3466667" cy="12.3454237" rx="1.17333333" ry="1.17830508"></ellipse>
                        <ellipse id="Oval" fill="#D9EBF4" fill-rule="nonzero" cx="70.1466667" cy="12.6132203" rx="1.13333333" ry="1.13813559"></ellipse>
                        <ellipse id="Oval" fill="#D9EBF4" fill-rule="nonzero" cx="75.72" cy="14.9162712" rx="1.81333333" ry="1.82101695"></ellipse>
                        <ellipse id="Oval" fill="#E4F4FA" fill-rule="nonzero" cx="76.8133333" cy="0.843559322" rx="1" ry="1"></ellipse>
                        <ellipse id="Oval" fill="#E4F4FA" fill-rule="nonzero" cx="58.4133333" cy="14.9162712" rx="1" ry="1"></ellipse>
                        <ellipse id="Oval" fill="#E4F4FA" fill-rule="nonzero" cx="63.8" cy="17.1657627" rx="1.88" ry="1.8879661"></ellipse>
                        <ellipse id="Oval" fill="#E4F4FA" fill-rule="nonzero" cx="56.5066667" cy="9.82813559" rx="1" ry="1"></ellipse>
                        <path d="M77.5333333,77.5940678 L77.5333333,41.0666102 C77.5333333,40.4084552 77.0020446,39.8749153 76.3466667,39.8749153 L75.1066667,39.8749153 C74.4512888,39.8749153 73.92,40.4084552 73.92,41.0666102 L73.92,44.1061017 C73.92,44.7642566 73.3887112,45.2977966 72.7333333,45.2977966 L68.7333333,45.2977966 C68.0779554,45.2977966 67.5466667,45.8313366 67.5466667,46.4894915 L67.5466667,60.3881356 C67.5466667,61.0462905 67.0153779,61.5798305 66.36,61.5798305 L63.92,61.5798305 C63.2646221,61.5798305 62.7333333,62.1133705 62.7333333,62.7715254 L62.7333333,71.5284746 C62.7333333,72.1866295 62.2020446,72.7201695 61.5466667,72.7201695 L60.3333333,72.7201695 C60.0186098,72.7201695 59.7167765,72.5946163 59.4942333,72.3711301 C59.2716901,72.147644 59.1466667,71.8445317 59.1466667,71.5284746 L59.1466667,70.0020339 C59.1466667,69.343879 58.6153779,68.810339 57.96,68.810339 L56.88,68.810339 C56.2246221,68.810339 55.6933333,68.276799 55.6933333,67.6186441 L55.6933333,65.6101695 C55.6933333,64.9520146 55.1620446,64.4184746 54.5066667,64.4184746 L48.1333333,64.4184746 C47.4779554,64.4184746 46.9466667,63.8849346 46.9466667,63.2267797 L46.9466667,62.0083051 C46.9466667,61.3501502 46.4153779,60.8166102 45.76,60.8166102 L25.2266667,60.8166102 C24.9117605,60.8161306 24.6095777,60.9413694 24.3866667,61.1647458 L18.8666667,66.6545763 C18.6437557,66.8779526 18.3415728,67.0031914 18.0266667,67.0027119 L16.3333333,67.0027119 C15.6779554,67.0027119 15.1466667,67.5362519 15.1466667,68.1944068 L15.1466667,72.2113559 C15.1466667,72.8695109 14.6153779,73.4030508 13.96,73.4030508 L13.28,73.4030508 C12.6246221,73.4030508 12.0933333,72.8695109 12.0933333,72.2113559 L12.0933333,71.5150847 C12.0933333,70.8569298 11.5620446,70.3233898 10.9066667,70.3233898 L10.0666667,70.3233898 C9.41128876,70.3233898 8.88,69.7898498 8.88,69.1316949 C8.88,68.47354 8.34871124,67.94 7.69333333,67.94 L1.52,67.94 C0.864622097,67.94 0.333333333,68.47354 0.333333333,69.1316949 L0.333333333,77.580678 L77.5333333,77.5940678 Z" id="Path" fill="#E4F4FA" fill-rule="nonzero"></path>
                        <path d="M0.32,77.5940678 L77.68,77.5940678" id="Path" stroke="#041256" stroke-width="2.66666667" stroke-linecap="round" stroke-linejoin="round"></path>
                        <path d="M44.3333333,0.0669491525 L20.3333333,0.0669491525 C18.5039135,0.0960806363 16.7579542,0.840657109 15.4666667,2.14237288 L2.37333333,15.2777966 C1.06103938,16.6052658 0.327283813,18.4016745 0.333333333,20.2722034 L0.333333333,63.3740678 C0.355309095,67.5683039 3.74340965,70.9588013 7.92,70.9661017 L44.3333333,70.9661017 C48.5306974,70.9661017 51.9333333,67.5490478 51.9333333,63.3338983 L51.9333333,7.71254237 C51.9368736,5.68603723 51.1377248,3.74131478 49.7120644,2.30710171 C48.286404,0.872888647 46.3512909,0.0669460339 44.3333333,0.0669491525 Z" id="Path" fill="#E4F4FA" fill-rule="nonzero"></path>
                        <path d="M44.52,0.0803389831 C47.5244774,1.17244381 49.5278933,4.03512769 49.5333333,7.24389831 L49.5333333,62.9322034 C49.5333333,64.9563896 48.7326213,66.8976704 47.3073449,68.3289862 C45.8820684,69.7603019 43.9489787,70.5644068 41.9333333,70.5644068 L5.32,70.5644068 C6.15669703,70.8495929 7.03663517,70.9855416 7.92,70.9661017 L44.3333333,70.9661017 C48.5306974,70.9661017 51.9333333,67.5490478 51.9333333,63.3338983 L51.9333333,7.71254237 C51.9345779,3.56952749 48.6442894,0.182097059 44.52,0.0803389831 Z" id="Path" fill="#FFFFFF" fill-rule="nonzero"></path>
                        <path d="M10.48,19.7366102 C15.6862042,19.7366102 19.9066667,15.4982644 19.9066667,10.27 L19.9066667,0.120508475 C19.1341094,0.181910035 18.3771077,0.371962371 17.6666667,0.682881356 C17.5866667,0.749830508 17.4933333,0.816779661 17.4133333,0.883728814 L1.13333333,17.1791525 C1.05333333,17.2594915 1,17.3532203 0.933333333,17.4335593 C0.604161577,18.1613168 0.40124142,18.9402092 0.333333333,19.7366102 L10.48,19.7366102 Z" id="Path" fill="#B9DCEA" fill-rule="nonzero"></path>
                        <path d="M37.2533333,57.8574576 L37.2533333,57.8574576 C25.4824366,46.046654 18.8722243,30.0195395 18.88,13.3094915 L18.88,4.86050847 L11,6.61457627 L2.37333333,15.2777966 C1.06103938,16.6052658 0.327283813,18.4016745 0.333333333,20.2722034 L0.333333333,63.3740678 C0.355309095,67.5683039 3.74340965,70.9588013 7.92,70.9661017 L44.3333333,70.9661017 C48.2968806,70.9645591 51.5937553,67.9043594 51.9066667,63.9364407 C46.4151832,63.9294087 41.1486993,61.7445907 37.2533333,57.8574576 Z" id="Path" fill="#B9DCEA" fill-rule="nonzero"></path>
                        <path d="M45.88,70.8589831 C46.3123364,70.7714869 46.7361866,70.6460333 47.1466667,70.4840678 L47.2666667,70.4840678 C47.6603311,70.3201707 48.0394642,70.123082 48.4,69.8949153 L48.5066667,69.8279661 C48.8608617,69.5973827 49.1953478,69.3376175 49.5066667,69.0513559 L49.6,68.9710169 C49.9108871,68.674285 50.19634,68.3517897 50.4533333,68.0069492 L50.4533333,67.9266102 C50.716423,67.5725524 50.9484052,67.196224 51.1466667,66.8018644 L51.1466667,66.8018644 C51.3480606,66.3716137 51.5087664,65.9233171 51.6266667,65.4628814 L51.6266667,65.4628814 C51.7547785,65.003241 51.8395958,64.5325277 51.88,64.0569492 L51.88,64.0569492 C51.0461633,64.0492342 50.2135456,63.9911064 49.3866667,63.8828814 C48.9153291,67.7080083 45.6780382,70.5799237 41.84,70.5777966 L5.32,70.5777966 C5.72345174,70.7234704 6.13819479,70.8354328 6.56,70.9125424 L6.62666667,70.9125424 C7.06656278,70.9931575 7.51283954,71.0334926 7.96,71.0330508 L44.3333333,71.0330508 C44.8031105,71.0318138 45.2717691,70.9869906 45.7333333,70.8991525 L45.88,70.8589831 Z" id="Path" fill="#D9EBF4" fill-rule="nonzero"></path>
                        <path d="M18.9066667,14.5011864 C18.9066667,14.1128814 18.9066667,13.7111864 18.9066667,13.3228814 L18.9066667,4.86050847 L11.8266667,6.42711864 L1.16,17.1389831 C1.08,17.219322 1.02666667,17.3130508 0.96,17.3933898 L0.96,17.3933898 C0.815394643,17.7311124 0.699427603,18.0804877 0.613333333,18.4377966 L0.613333333,18.5315254 C0.5255503,18.9147269 0.467597545,19.3042079 0.44,19.6964407 L10.5466667,19.6964407 C14.0840092,19.6796808 17.313381,17.6728139 18.9066667,14.5011864 L18.9066667,14.5011864 Z" id="Path" fill="#8DB9D3" fill-rule="nonzero"></path>
                        <path d="M46.9066667,68.6094915 L8.94666667,68.6094915 C5.566684,68.6094915 2.82666667,65.857864 2.82666667,62.4635593 L2.82666667,17.8754237 C2.82769118,16.0076144 3.56608476,14.2164045 4.88,12.8944068 L11.16,6.58779661 L11,6.58779661 L2.37333333,15.2777966 C1.06103938,16.6052658 0.327283813,18.4016745 0.333333333,20.2722034 L0.333333333,63.3740678 C0.355309095,67.5683039 3.74340965,70.9588013 7.92,70.9661017 L44.3333333,70.9661017 C46.8856175,70.9597544 49.2624096,69.6605757 50.6533333,67.5115254 C49.5221762,68.2016888 48.2299168,68.5803873 46.9066667,68.6094915 Z" id="Path" fill="#65CEB5" fill-rule="nonzero"></path>
                        <path d="M9.92,17.4067797 C14.1173641,17.4067797 17.52,13.9897258 17.52,9.77457627 L17.52,0.0669491525 L0.333333333,17.4067797 L9.92,17.4067797 Z" id="Path" fill="#D9EBF4" fill-rule="nonzero"></path>
                        <path d="M17.52,0.723050847 C16.7565101,1.06897918 16.0610409,1.54970715 15.4666667,2.14237288 L2.37333333,15.2777966 C1.78126234,15.8957612 1.30678268,16.6173035 0.973333333,17.4067797 L9.92,17.4067797 C14.1173641,17.4067797 17.52,13.9897258 17.52,9.77457627 L17.52,0.723050847 Z" id="Path" fill="#EF0073" fill-rule="nonzero"></path>
                        <path d="M6.56,11.0733898 L2.37333333,15.2777966 C1.78126234,15.8957612 1.30678268,16.6173035 0.973333333,17.4067797 L4.77333333,17.4067797 L7.81333333,14.3538983 C8.08694825,14.1004079 8.24257719,13.7435883 8.24257719,13.3697458 C8.24257719,12.9959032 8.08694825,12.6390836 7.81333333,12.3855932 L6.56,11.0733898 Z" id="Path" fill="#F66CAF" fill-rule="nonzero"></path>
                        <path d="M15.4666667,2.14237288 L7.69333333,9.93525424 L8.94666667,11.1938983 C9.19908744,11.4686726 9.55440148,11.624961 9.92666667,11.624961 C10.2989319,11.624961 10.6542459,11.4686726 10.9066667,11.1938983 L17.5733333,4.49898305 L17.5733333,0.723050847 C16.7908928,1.0633592 16.0769488,1.54436385 15.4666667,2.14237288 L15.4666667,2.14237288 Z" id="Path" fill="#F66CAF" fill-rule="nonzero"></path>
                        <path d="M44.3333333,0.0669491525 L20.3333333,0.0669491525 C18.5039135,0.0960806363 16.7579542,0.840657109 15.4666667,2.14237288 L2.37333333,15.2777966 C1.06103938,16.6052658 0.327283813,18.4016745 0.333333333,20.2722034 L0.333333333,63.3740678 C0.355309095,67.5683039 3.74340965,70.9588013 7.92,70.9661017 L44.3333333,70.9661017 C48.5306974,70.9661017 51.9333333,67.5490478 51.9333333,63.3338983 L51.9333333,7.71254237 C51.9368736,5.68603723 51.1377248,3.74131478 49.7120644,2.30710171 C48.286404,0.872888647 46.3512909,0.0669460339 44.3333333,0.0669491525 Z" id="Path" stroke="#041256" stroke-width="2.66666667" stroke-linecap="round" stroke-linejoin="round"></path>
                        <path d="M17.52,0.723050847 C16.7565101,1.06897918 16.0610409,1.54970715 15.4666667,2.14237288 L2.37333333,15.2777966 C1.78126234,15.8957612 1.30678268,16.6173035 0.973333333,17.4067797 L9.92,17.4067797 C14.1173641,17.4067797 17.52,13.9897258 17.52,9.77457627 L17.52,0.723050847 Z" id="Path" stroke="#041256" stroke-width="2.66666667" stroke-linecap="round" stroke-linejoin="round"></path>
                        <path d="M12.3466667,48.9666102 L29.5066667,48.9666102" id="Path" stroke="#80A0C1" stroke-width="1.33333333" stroke-linecap="round"></path>
                        <path d="M12.3466667,54.2555932 L29.5066667,54.2555932" id="Path" stroke="#80A0C1" stroke-width="1.33333333" stroke-linecap="round"></path>
                        <path d="M12.3466667,59.2232203 L22.2533333,59.2232203" id="Path" stroke="#80A0C1" stroke-width="1.33333333" stroke-linecap="round"></path>
                        <path d="M71.5333333,12.0508475 L38.92,44.7755932 C38.2330187,45.4673594 37.7170042,46.3111558 37.4133333,47.239322 L36.08,51.1625424 C35.9146547,51.6137084 36.0289283,52.120333 36.3717301,52.4559087 C36.7145319,52.7914843 37.2217716,52.8932718 37.6666667,52.7157627 L41.5733333,51.3767797 C42.4975833,51.0718221 43.3378193,50.5536211 44.0266667,49.8637288 L76.6266667,17.1657627 C77.5376359,16.2522358 77.8935062,14.9197255 77.56,13.6710169 L77.56,13.6710169 C77.2290326,12.4141576 76.2515562,11.4325393 75,11.1001695 L75,11.1001695 C73.7583108,10.7737954 72.4375052,11.1360052 71.5333333,12.0508475 Z" id="Path" fill="#3085FF" fill-rule="nonzero"></path>
                        <path d="M44.0266667,49.9038983 L76.56,17.2327119 C77.2301939,16.5681473 77.6254959,15.6737532 77.6666667,14.7288136 C77.7036184,13.5391574 77.1551152,12.4074576 76.2,11.7027119 L76.4266667,12.9077966 C76.4800801,13.1367878 76.4800801,13.3750766 76.4266667,13.6040678 L76.4266667,13.6040678 C76.0038816,15.0920113 75.2099377,16.4469741 74.12,17.540678 L43.4533333,48.3372881 C43.0113508,48.7799105 42.4585656,49.0944827 41.8533333,49.2477966 L41.8533333,49.2477966 C41.2481011,49.4011105 40.6953159,49.7156827 40.2533333,50.1583051 L38.0666667,52.3274576 L38.24,52.5149153 L41.5733333,51.4035593 C42.4963077,51.1024918 43.3364324,50.5889447 44.0266667,49.9038983 Z" id="Path" fill="#8CB6F3" fill-rule="nonzero"></path>
                        <path d="M38.0666667,52.3274576 L39.4,48.4042373 C39.7036708,47.476071 40.2196854,46.6322747 40.9066667,45.9405085 L73.48,13.2023729 C74.3506724,12.3336982 75.6020426,11.970323 76.8,12.2383051 C76.1466451,11.4543276 75.1923292,10.9860963 74.1749553,10.9503373 C73.1575814,10.9145783 72.1730028,11.3146608 71.4666667,12.0508475 L38.92,44.7755932 C38.2330187,45.4673594 37.7170042,46.3111558 37.4133333,47.239322 L36.08,51.1625424 C35.9146547,51.6137084 36.0289283,52.120333 36.3717301,52.4559087 C36.7145319,52.7914843 37.2217716,52.8932718 37.6666667,52.7157627 L38.0266667,52.5952542 C38.0299389,52.504763 38.0433569,52.4149305 38.0666667,52.3274576 L38.0666667,52.3274576 Z" id="Path" fill="#8CB6F3" fill-rule="nonzero"></path>
                        <path d="M37.1066667,51.8588136 L38.44,47.9355932 C38.7394395,47.0303807 39.2411264,46.20596 39.9066667,45.5254237 L72.5066667,12.720339 C73.4163391,11.8055097 74.7432269,11.4481315 75.9866667,11.7830508 C76.1881755,11.8368065 76.3845088,11.908503 76.5733333,11.9972881 C76.1345706,11.5671742 75.5926243,11.2581551 75,11.1001695 C73.7565602,10.7652501 72.4296724,11.1226284 71.52,12.0374576 L38.92,44.7755932 C38.2330187,45.4673594 37.7170042,46.3111558 37.4133333,47.239322 L36.08,51.1625424 C35.9647973,51.5148116 36.0155845,51.9005914 36.217987,52.2106934 C36.4203895,52.5207954 36.7523821,52.7214746 37.12,52.7559322 C36.9993474,52.4700559 36.9945636,52.1481785 37.1066667,51.8588136 L37.1066667,51.8588136 Z" id="Path" fill="#D2E0F9" fill-rule="nonzero"></path>
                        <path d="M71.5333333,12.0508475 L38.92,44.7755932 C38.2330187,45.4673594 37.7170042,46.3111558 37.4133333,47.239322 L36.08,51.1625424 C35.9146547,51.6137084 36.0289283,52.120333 36.3717301,52.4559087 C36.7145319,52.7914843 37.2217716,52.8932718 37.6666667,52.7157627 L41.5733333,51.3767797 C42.4975833,51.0718221 43.3378193,50.5536211 44.0266667,49.8637288 L76.6266667,17.1657627 C77.5376359,16.2522358 77.8935062,14.9197255 77.56,13.6710169 L77.56,13.6710169 C77.2290326,12.4141576 76.2515562,11.4325393 75,11.1001695 L75,11.1001695 C73.7583108,10.7737954 72.4375052,11.1360052 71.5333333,12.0508475 Z" id="Path" stroke="#041256" stroke-width="2.66666667" stroke-linecap="round" stroke-linejoin="round"></path>
                        <path d="M39,52.3810169 C38.8083202,51.9126942 38.5716459,51.4642467 38.2933333,51.0420339 C37.9916334,50.6137952 37.6666978,50.2025521 37.32,49.8101695 C37.7806033,50.0842482 38.2257301,50.3837468 38.6533333,50.7072881 C39.085692,51.0558914 39.4831323,51.4460466 39.84,51.8722034 L39.84,51.8722034 C39.9663201,52.0097079 40.0073113,52.2057359 39.9467395,52.382653 C39.8861677,52.5595702 39.7338043,52.6888364 39.5499908,52.7192576 C39.3661773,52.7496787 39.1805663,52.6763472 39.0666667,52.5283051 C39.03696,52.4829852 39.0144679,52.4332929 39,52.3810169 L39,52.3810169 Z" id="Path" fill="#041256" fill-rule="nonzero"></path>
                        <path d="M74.2666667,19.3616949 C73.8186072,18.4738873 73.2873166,17.6309809 72.68,16.8444068 C72.0348712,16.06783 71.3494782,15.3258993 70.6266667,14.6216949 C71.4682377,15.2074718 72.2782653,15.8376797 73.0533333,16.509661 C73.8142047,17.2187282 74.5062084,17.9988498 75.12,18.8394915 C75.2618896,19.065033 75.2062185,19.3623336 74.9924385,19.5207084 C74.7786585,19.6790832 74.47937,19.6447476 74.3066667,19.4420339 L74.2666667,19.3616949 Z" id="Path" fill="#041256" fill-rule="nonzero"></path>
                        <ellipse id="Oval" fill="#50D190" fill-rule="nonzero" cx="26.16" cy="28.9354237" rx="10.2266667" ry="10.27"></ellipse>
                        <path d="M33.1866667,21.490678 C36.4736554,25.713882 35.9681482,31.7666241 32.0265884,35.380994 C28.0850285,38.9953639 22.0368157,38.9523156 18.1466667,35.2822034 C20.508855,38.3172011 24.3652392,39.7671253 28.1313932,39.0362632 C31.8975472,38.3054011 34.9383659,35.5170016 36.0045049,31.8167007 C37.070644,28.1163997 35.982315,24.1281973 33.1866667,21.490678 L33.1866667,21.490678 Z" id="Path" fill="#8BF7F1" fill-rule="nonzero"></path>
                        <path d="M17.44,30.180678 C17.4305227,26.3666719 19.5265332,22.8615153 22.8834336,21.0776286 C26.240334,19.2937419 30.3051717,19.5249689 33.44,21.6781356 C30.6532167,19.1207603 26.6901528,18.3131328 23.1311393,19.5773068 C19.5721258,20.8414808 16.9960651,23.9718281 16.4301998,27.7200759 C15.8643346,31.4683236 17.4007074,35.2247891 20.4266667,37.4915254 C18.4962077,35.5546762 17.4202803,32.9209906 17.44,30.180678 L17.44,30.180678 Z" id="Path" fill="#74E2A8" fill-rule="nonzero"></path>
                        <ellipse id="Oval" fill="#3ABA90" fill-rule="nonzero" cx="26.16" cy="28.9354237" rx="6.54666667" ry="6.57440678"></ellipse>
                        <path d="M25.3866667,33.1532203 L25.3866667,33.1532203 C25.0674333,33.1557848 24.7603408,33.0304998 24.5333333,32.8050847 L22.52,30.7966102 C22.048717,30.3233302 22.048717,29.5559918 22.52,29.0827119 C22.991283,28.6094319 23.7553837,28.6094319 24.2266667,29.0827119 L25.3866667,30.2476271 L28.8266667,26.779661 C29.2979497,26.3063811 30.0620503,26.3063811 30.5333333,26.779661 C31.0046163,27.252941 31.0046163,28.0202794 30.5333333,28.4935593 L26.24,32.8050847 C26.0129926,33.0304998 25.7059,33.1557848 25.3866667,33.1532203 L25.3866667,33.1532203 Z" id="Path" fill="#26AAA0" fill-rule="nonzero"></path>
                        <ellipse id="Oval" stroke="#041256" stroke-width="2.66666667" stroke-linecap="round" stroke-linejoin="round" cx="26.16" cy="28.9354237" rx="10.2266667" ry="10.27"></ellipse>
                        <path d="M25.0266667,32.2962712 L25.0266667,32.2962712 C24.7074333,32.2988357 24.4003408,32.1735507 24.1733333,31.9481356 L22.16,29.9262712 C21.8551334,29.6201127 21.7360694,29.1738771 21.8476583,28.7556569 C21.9592473,28.3374367 22.2845361,28.0107695 22.7009917,27.8987077 C23.1174472,27.786646 23.5618,27.9062144 23.8666667,28.2123729 L25.0266667,29.3772881 L28.4666667,25.9227119 C28.9379497,25.4494319 29.7020503,25.449432 30.1733333,25.9227119 C30.6446163,26.3959918 30.6446163,27.1633302 30.1733333,27.6366102 L25.88,31.9481356 C25.6529926,32.1735507 25.3459,32.2988357 25.0266667,32.2962712 L25.0266667,32.2962712 Z" id="Path" fill="#FFFFFF" fill-rule="nonzero"></path>
                    </g>
                </g>
            </g>
        </g>
    </g>
</svg>