<?xml version="1.0" encoding="UTF-8"?>
<svg width="59px" height="64px" viewBox="0 0 59 64" version="1.1" xmlns="http://www.w3.org/2000/svg" xmlns:xlink="http://www.w3.org/1999/xlink">
    <!-- Generator: sketchtool 54.1 (76490) - https://sketchapp.com -->
    <title>E9EFC7A0-82BD-40CD-A826-5856B409DCA5</title>
    <desc>Created with sketchtool.</desc>
    <g id="Main-UI" stroke="none" stroke-width="1" fill="none" fill-rule="evenodd">
        <g id="Colive-Desktop" transform="translate(-981.000000, -3227.000000)" fill="#10121B" stroke="#EF0073">
            <g id="icon3" transform="translate(980.000000, 3227.000000)">
                <g id="Group-106">
                    <g id="Group-105">
                        <g id="Group-104">
                            <path d="M2.4377377,59.9776474 C2.27846378,60.2538844 2.1946224,60.5671447 2.1946224,60.88601 C2.1946224,61.8903594 3.00880847,62.7045455 4.01315789,62.7045455 C6.28542544,62.7045455 8.36406487,61.4250442 9.38756885,59.3963403 L10.1264368,57.9318182 L50.8735632,57.9318182 L51.6124311,59.3963403 C52.6359351,61.4250442 54.7145746,62.7045455 56.9868421,62.7045455 C57.3057074,62.7045455 57.6189677,62.6207041 57.8952047,62.4614301 C58.7652852,61.9597554 59.0639371,60.8477279 58.5622623,59.9776474 L56.4544243,56.321915 C55.1152429,53.9993034 52.6381116,52.5681818 49.9570798,52.5681818 L11.0429202,52.5681818 C8.36188838,52.5681818 5.8847571,53.9993034 4.54557567,56.321915 L2.4377377,59.9776474 Z" id="Rectangle"></path>
                            <path d="M47.4240934,12.9726459 L43.8412556,11.7822565 L35.822063,44.9438525 L40.8173893,43.1061385 L47.4240934,12.9726459 Z" id="Path-253"></path>
                            <path d="M12.6328298,17.8921173 L16.458453,36.0909091 L19.4548076,36.0909091 L15.6610793,17.291883 L12.6328298,17.8921173 Z" id="Path-254"></path>
                            <path d="M40.8967611,52.0576923 C49.1983856,52.0576923 54.2894737,46.320443 54.2894737,37.9947552 C54.2894737,29.9751347 48.9556569,24.9318182 39.8967611,24.9318182 C34.2263077,24.9318182 23.0751185,27.7723475 10.0054706,32.0483221 C5.69222066,33.4594808 3.71052632,35.6946018 3.71052632,38.9947552 C3.71052632,42.2243499 5.28731324,44.113668 9.20836165,45.5966487 C18.7012948,49.1869732 33.5106369,52.0576923 40.8967611,52.0576923 Z" id="Oval" transform="translate(29.000000, 38.494755) scale(-1, 1) translate(-29.000000, -38.494755) "></path>
                            <ellipse id="Oval" cx="16.8552632" cy="38.5454545" rx="8.32894737" ry="8.25"></ellipse>
                            <path d="M11.156392,12.4318182 L9.60287081,12.4318182 C8.12174353,12.4318182 6.92105263,13.6325091 6.92105263,15.1136364 C6.92105263,16.5947636 8.12174353,17.7954545 9.60287081,17.7954545 L24.90311,17.7954545 C25.9449199,17.7954545 26.7894737,16.9509008 26.7894737,15.9090909 C26.7894737,14.867281 25.9449199,14.0227273 24.90311,14.0227273 L16.0526316,14.0227273 L15.8957919,13.9974917 L11.156392,12.4318182 Z" id="Path-255"></path>
                            <path d="M52.0530498,12.2272727 L55.8816999,3.37363825 C55.8913023,3.35111694 55.8913023,3.35111694 55.9004413,3.32840362 C56.224695,2.51045534 55.8244765,1.58451767 55.0065282,1.26026396 C54.1519037,0.921470941 53.184081,1.33624055 52.8400005,2.18874998 L50.311069,8.45454545 L38.715311,8.45454545 C37.6735011,8.45454545 36.8289474,9.29909922 36.8289474,10.3409091 C36.8289474,11.382719 37.6735011,12.2272727 38.715311,12.2272727 L52.0530498,12.2272727 Z" id="Path-256"></path>
                            <path d="M16,39.5 C15.7238576,39.5 15.5,39.7238576 15.5,40 L15.5,49.4772727 C15.5,49.7534151 15.7238576,49.9772727 16,49.9772727 L18,49.9772727 C18.2761424,49.9772727 18.5,49.7534151 18.5,49.4772727 L18.5,40 C18.5,39.7238576 18.2761424,39.5 18,39.5 L16,39.5 Z" id="Rectangle"></path>
                            <path d="M13.5340909,47.5 C12.4106935,47.5 11.5,48.4106935 11.5,49.5340909 C11.5,50.6574883 12.4106935,51.5681818 13.5340909,51.5681818 L20.4659091,51.5681818 C21.5893065,51.5681818 22.5,50.6574883 22.5,49.5340909 C22.5,48.4106935 21.5893065,47.5 20.4659091,47.5 L13.5340909,47.5 Z" id="Rectangle"></path>
                        </g>
                    </g>
                </g>
            </g>
        </g>
    </g>
</svg>