<svg id="Layer_1" data-name="Layer 1" xmlns="http://www.w3.org/2000/svg" viewBox="0 0 29 31"><defs><style>.cls-1{fill:#fff;}.cls-2{fill:#fbbb00;}.cls-3{fill:#518ef8;}.cls-4{fill:#28b446;}.cls-5{fill:#f14336;}</style></defs><title>google-icn</title><rect class="cls-1" width="29" height="31"/><path class="cls-2" d="M7.82,18,7,21.12l-3.05.06A12,12,0,0,1,3.84,10h0l2.72.5,1.19,2.7A7.16,7.16,0,0,0,7.82,18Z"/><path class="cls-3" d="M26.29,13.26A12,12,0,0,1,22,24.86h0l-3.42-.17-.48-3A7.15,7.15,0,0,0,21.18,18H14.76V13.26H26.29Z"/><path class="cls-4" d="M22,24.86h0A12,12,0,0,1,3.93,21.19L7.82,18A7.14,7.14,0,0,0,18.1,21.66Z"/><path class="cls-5" d="M22.16,6.26,18.27,9.45A7.14,7.14,0,0,0,7.75,13.18L3.84,10h0A12,12,0,0,1,22.16,6.26Z"/></svg>