<?xml version="1.0" encoding="UTF-8"?>
<svg width="16px" height="17px" viewBox="0 0 16 17" version="1.1" xmlns="http://www.w3.org/2000/svg" xmlns:xlink="http://www.w3.org/1999/xlink">
    <!-- Generator: sketchtool 55.2 (78181) - https://sketchapp.com -->
    <title>AA6B049F-42D5-4F0C-82F6-8A9F0F572999</title>
    <desc>Created with sketchtool.</desc>
    <defs>
        <linearGradient x1="50.0911717%" y1="3.02476072%" x2="49.9379479%" y2="89.9821062%" id="linearGradient-1">
            <stop stop-color="#9D2D8E" offset="0%"></stop>
            <stop stop-color="#A12D8E" offset="14%"></stop>
            <stop stop-color="#AC2D8E" offset="27%"></stop>
            <stop stop-color="#BE2E8F" offset="40%"></stop>
            <stop stop-color="#D42E8F" offset="50%"></stop>
            <stop stop-color="#CA2C89" offset="55%"></stop>
            <stop stop-color="#B02877" offset="64%"></stop>
            <stop stop-color="#86205B" offset="76%"></stop>
            <stop stop-color="#4C1634" offset="90%"></stop>
            <stop stop-color="#1B0D13" offset="100%"></stop>
        </linearGradient>
        <linearGradient x1="4.56896811%" y1="19.8256064%" x2="77.7055425%" y2="75.7524663%" id="linearGradient-2">
            <stop stop-color="#C32387" offset="0%"></stop>
            <stop stop-color="#EE115C" offset="50%"></stop>
            <stop stop-color="#170D10" offset="100%"></stop>
        </linearGradient>
        <linearGradient x1="54.2766404%" y1="-3.3337378%" x2="42.7574847%" y2="83.4676986%" id="linearGradient-3">
            <stop stop-color="#DB142D" offset="0%"></stop>
            <stop stop-color="#270D19" offset="100%"></stop>
        </linearGradient>
    </defs>
    <g id="Dashboard" stroke="none" stroke-width="1" fill="none" fill-rule="evenodd" opacity="0.689290365">
        <g id="Notification" transform="translate(-992.000000, -173.000000)">
            <g id="Logo-colive-Copy" transform="translate(992.000000, 173.000000)">
                <g id="_Clip_Group_" transform="translate(4.692793, 0.000000)" fill="url(#linearGradient-1)" fill-rule="nonzero">
                    <path d="M4.21092331,0.134955752 C3.54049615,0.247956195 3.00880885,0.7440741 2.86841864,1.38764807 C2.72802843,2.03122205 3.00722629,2.69256115 3.57339021,3.05752212 C2.97591753,3.25110619 2.44368613,3.70243363 2.11061228,4.40265487 C1.29109038,6.12389381 1.7798276,8.16371681 0.030903759,7.02986726 C0.183133387,7.6050885 2.25711899,8.91039823 3.10525549,7.53429204 C3.29983471,7.21792035 3.45893184,6.89048673 3.67754732,6.5829646 C5.48255576,3.99336283 3.48411268,13.6548673 4.05525993,15.6028761 C4.65616636,17.6537611 7.87359104,15.2389381 7.52449302,11.6736726 C7.5542522,13.6227876 5.41273616,16.3915929 4.9400231,14.9048673 C4.53140674,13.6238938 6.83545366,8.33628319 6.83087532,6.49778761 C6.83087532,4.7079646 6.10406469,3.62168142 5.20900027,3.17920354 C5.97487698,2.84193832 6.35966732,2.00514729 6.10544385,1.2297369 C5.85122037,0.454326503 5.03801447,-0.0155984582 4.21092331,0.134955752" id="_Clipping_Path_2"></path>
                </g>
                <g id="_Group_" opacity="0.5" transform="translate(6.066293, 0.442478)" fill="#FFFFFF">
                    <g id="_Group_2" transform="translate(0.000000, 2.765487)">
                        <g id="_Group_3">
                            <path d="M2.92441127,0.0873893805 C2.28916733,0.0907079646 1.48795877,0.407079646 1.0438603,1.32743363 C0.677593531,2.10176991 0.518496401,3.76106195 0.048072514,4.23451327 C0.447532214,4.63495575 1.19265618,4.55752212 1.44217542,4.15597345 C1.71229717,3.71349558 2.27199858,2.44026549 2.9221221,2.62721239 C3.2517622,2.72234513 3.33875056,3.09513274 3.37995557,3.38163717 C3.54477562,4.66371681 3.2654972,6.55088496 3.139593,7.8539823 C3.05489381,8.75110619 2.96905003,9.65376106 2.93013419,10.5542035 C2.91411002,10.9059735 2.90495335,11.2632743 2.91983293,11.6150442 C2.93471252,11.9668142 2.9713392,12.6493363 3.3776664,12.7920354 C3.7839936,12.9347345 4.31508042,12.5199115 4.57719008,12.2621681 C2.89923043,13.2887168 3.21742469,10.6338496 3.39941349,9.86283186 C3.61116147,8.97787611 3.8892953,8.09292035 4.15827246,7.21681416 C4.47990047,6.17146018 4.84502266,5.06747788 5.04303563,3.99446903 C5.08948658,3.76138204 5.11552267,3.52492527 5.12086732,3.28761062 C5.12086732,1.33849558 4.10104328,0.0796460177 2.93013419,0.0796460177" id="_Path_"></path>
                        </g>
                    </g>
                    <g id="_Group_4" transform="translate(1.831334, 0.000000)">
                        <g id="_Clip_Group_2">
                            <rect id="_Clipping_Path_3" fill-rule="nonzero" x="0.0846991913" y="0.0376106195" width="2.47573447" height="2.39269912" rx="1.19634956"></rect>
                            <path d="M1.32199413,0.0376101071 C0.820987991,0.0376101071 0.369335758,0.329346631 0.177716108,0.776734322 C-0.0139035419,1.22412201 0.0922620402,1.73901786 0.446690628,2.08124245 C0.801119216,2.42346703 1.33398176,2.52559571 1.79671805,2.33998933 C2.25945435,2.15438295 2.5608967,1.71760943 2.56043419,1.23340708 C2.56043419,0.916070386 2.42991921,0.611747118 2.19763379,0.387459954 C1.96534836,0.163172791 1.65034342,0.037317061 1.32199413,0.0376101071" id="_Path_2"></path>
                        </g>
                    </g>
                </g>
                <g id="_Group_5" opacity="0.3" transform="translate(8.698836, 5.973451)" fill="#1A0E0D" fill-rule="nonzero">
                    <g id="_Group_6">
                        <path d="M0.421206789,0.774336283 C0.511628899,1.79314159 0.264398827,3.92699115 0.0904221097,5.88274336 C0.43379721,5.26880531 1.32542789,3.14048673 2.22049231,3.30420354 C2.55585533,2.17256637 2.82139874,1.14712389 2.82025784,0.521017699 C2.82025784,0.390486726 2.82025784,0.264380531 2.80766373,0.14159292 C1.94579223,-4.16333634e-17 1.10566782,0.276548673 0.421206789,0.774336283" id="_Path_3"></path>
                    </g>
                </g>
                <g id="_Clip_Group_3" transform="translate(0.000000, 3.539823)" fill="url(#linearGradient-2)" fill-rule="nonzero">
                    <path d="M1.57265796,0.0497787611 C0.664656532,0.20172998 0.0318514044,1.00511721 0.122027431,1.89144848 C0.212203457,2.77777975 0.994798293,3.4466608 1.91603306,3.42477876 C1.7114871,3.63616809 1.57852214,3.90282635 1.5348867,4.18915929 C1.42042833,5.18473451 2.08543144,6.69137168 2.43567404,7.37168142 C3.50700435,9.45353982 6.22081223,11.5597345 7.93883231,9.14159292 C9.21618768,7.34402655 9.8594437,4.49557522 11.6083675,5.75995575 C11.2649924,4.61615044 9.42450191,4.01327434 8.33943659,4.69800885 C7.97088065,4.93030973 7.70991558,5.37942478 7.53822803,5.81084071 C7.17997334,6.71017699 6.83201991,8.06858407 6.61111526,8.34623894 C6.02279925,9.08517699 5.09683107,8.08849558 4.65158802,7.09070796 C4.23495957,6.14380531 4.23495957,5.19911504 5.37954323,5.73340708 C6.62713943,6.30530973 7.27726295,4.79756637 7.79804852,3.99446903 C6.84918866,5.26327434 5.37954323,3.84623894 4.27730916,3.2079646 C3.94212952,3.00411138 3.55611138,2.89173132 3.1601955,2.88274336 C3.63613703,2.3878016 3.76391575,1.66756612 3.48576168,1.04766222 C3.20760762,0.42775831 2.57624436,0.0256876103 1.87711721,0.0232300885 C1.77501918,0.0233826794 1.67313539,0.0322668875 1.57265796,0.0497787611" id="_Clipping_Path_4"></path>
                </g>
                <g id="_Group_7" opacity="0.5" transform="translate(0.457833, 3.871681)" fill="#FFFFFF">
                    <g id="_Group_8">
                        <g id="_Group_9">
                            <path d="M2.61651826,1.98119469 C2.89024516,1.45922772 2.76967055,0.824864128 2.32186891,0.430994227 C1.87406727,0.0371243258 1.20926496,-0.0193008301 0.697285046,0.293107526 C0.185305134,0.605515883 -0.0478285475,1.20985845 0.127574007,1.76994532 C0.302976561,2.3300322 0.843740022,2.70799802 1.44904292,2.69358407 C2.00988892,2.67920354 2.36470986,2.47234513 2.61651826,1.98119469" id="_Path_4"></path>
                        </g>
                    </g>
                    <g id="_Group_10" transform="translate(1.373500, 2.986726)">
                        <g id="_Group_11">
                            <path d="M6.09376344,2.63495575 C5.84882254,3.25110619 5.6691229,3.89269912 5.45050742,4.51548673 C5.27195237,5.02986726 5.06249356,5.60176991 4.41237003,5.67477876 C4.00947658,5.72013274 3.64320981,5.50884956 3.35935306,5.25331858 C2.67832578,4.6460177 1.62759797,2.76548673 2.43681863,2.05641593 C2.80651915,1.73230088 3.32959389,1.86836283 3.72905359,2.05641593 C4.25670666,2.30199115 4.59435884,1.9800885 4.90225184,1.5829646 C4.28532125,1.53650442 3.6786919,1.17146018 3.18537634,0.853982301 C2.86947125,0.649336283 2.55814449,0.425884956 2.23079357,0.238938053 C1.45247667,-0.203539823 0.208314227,0.0984513274 0.112169199,0.915929204 C0.013735004,1.76216814 0.587171421,3.12831858 0.972896117,3.87610619 C1.54518795,5 2.9644717,6.58628319 4.34941793,6.50110619 C5.36580823,6.4380531 5.91635297,5.42588496 6.34442726,4.65265487 C6.66834444,4.06747788 6.96364703,3.45243363 7.3299138,2.89269912 C7.64009597,2.41814159 8.0590136,1.89712389 8.65305252,1.76216814 C7.51991469,1.15265487 6.54472941,1.49557522 6.09032969,2.63606195" id="_Path_5"></path>
                        </g>
                    </g>
                </g>
                <g id="_Clip_Group_4" transform="translate(7.554252, 4.092920)" fill="url(#linearGradient-3)" fill-rule="nonzero">
                    <path d="M5.90834089,0.110619469 C4.86950969,0.285093562 4.17240902,1.23878844 4.34941793,2.24336283 C4.36217533,2.31234998 4.37860281,2.3806559 4.39863503,2.44800885 C3.0411588,1.90265487 1.23729494,2.5840708 0.0709641873,5.05641593 C0.897353595,3.50774336 2.41278237,3.68030973 3.43146183,4.50331858 C5.64852039,6.28871681 4.45471963,10.9446903 2.4734453,12.1847345 C3.61802897,11.7997788 4.66875678,10.340708 5.27424154,9.21238938 C6.5103919,6.90597345 6.46689772,4.96570796 5.79159335,3.7289823 C6.54794751,3.90379515 7.33854797,3.61887051 7.79180428,3.00812592 C8.2450606,2.39738134 8.27082857,1.58228246 7.85699699,0.945934269 C7.44316541,0.309586078 6.67203761,-0.0214537024 5.90605172,0.10840708" id="_Clipping_Path_5"></path>
                </g>
                <g id="_Group_12" opacity="0.5" transform="translate(9.042211, 4.535398)" fill="#FFFFFF">
                    <g id="_Group_13" transform="translate(0.000000, 2.101770)">
                        <g id="_Group_14">
                            <path d="M2.55585533,0.174778761 C1.62301964,-0.0862831858 0.724521461,0.350663717 0.0835546077,0.98119469 L0.169398383,0.973451327 C1.12512574,0.903761062 2.09458811,1.4369469 2.67260286,2.15486726 C3.70272816,3.44137168 3.67067982,5.37610619 3.22543677,6.88274336 C3.83206612,5.86061947 4.30249,4.68141593 4.37803252,3.49889381 C4.46845463,2.09181416 4.0781516,0.601769912 2.55585533,0.180309735" id="_Path_6"></path>
                        </g>
                    </g>
                    <g id="_Group_15" transform="translate(3.204834, 0.000000)">
                        <g id="_Group_16">
                            <path d="M1.56350129,0.0298672566 C0.741724353,0.0298672566 0.075542522,0.673705559 0.075542522,1.46792035 C0.075542522,2.26213515 0.741724353,2.90597345 1.56350129,2.90597345 C2.38527822,2.90597345 3.05146006,2.26213515 3.05146006,1.46792035 C3.05146006,0.673705559 2.38527822,0.0298672566 1.56350129,0.0298672566" id="_Path_7"></path>
                        </g>
                    </g>
                </g>
            </g>
        </g>
    </g>
</svg>