<svg xmlns="http://www.w3.org/2000/svg" width="22" height="22" viewBox="0 0 22 22">
    <path fill="#FFF" fill-rule="evenodd" stroke="#FFF" stroke-width=".4" d="M16.998 20.999c-1.772 0-3.657-.502-5.604-1.492-1.794-.913-3.566-2.22-5.125-3.78-1.56-1.56-2.865-3.333-3.778-5.126C1.502 8.655 1 6.77 1 5c0-1.148 1.07-2.257 1.53-2.68C3.192 1.71 4.232 1 4.99 1c.376 0 .816.246 1.388.774.425.394.904.928 1.384 1.544.289.372 1.73 2.27 1.73 3.182 0 .747-.845 1.267-1.74 1.816-.346.212-.703.432-.96.639-.277.22-.326.338-.334.364.95 2.365 3.853 5.266 6.22 6.214.02-.007.137-.053.362-.333.208-.258.428-.616.64-.96.55-.895 1.07-1.74 1.817-1.74.912 0 2.812 1.441 3.184 1.73.617.48 1.151.958 1.545 1.383.529.57.775 1.011.775 1.387 0 .756-.711 1.8-1.32 2.463-.424.462-1.534 1.537-2.683 1.537l.001-.001zM5.045 2.091c-.265.005-.979.33-1.755 1.044-.737.679-1.195 1.416-1.195 1.924 0 6.657 8.181 14.84 14.835 14.84.508 0 1.246-.46 1.925-1.2.716-.78 1.04-1.496 1.045-1.762-.031-.188-.552-.92-1.977-2.015-1.224-.942-2.217-1.448-2.473-1.454-.017.005-.128.048-.353.333-.195.248-.404.587-.607.916-.554.901-1.078 1.753-1.84 1.753a.96.96 0 0 1-.359-.07c-2.598-1.039-5.67-4.11-6.71-6.707-.125-.312-.145-.8.469-1.356.327-.296.778-.573 1.216-.842.328-.202.669-.41.916-.607.285-.224.328-.335.333-.353-.007-.255-.512-1.247-1.454-2.471C5.964 2.64 5.232 2.12 5.044 2.088l.001.003z"/>
</svg>
