<svg width="24" height="24" viewBox="0 0 24 24" class="SortModalIcon"><g fill="none" fill-rule="evenodd"><path d="M0 0h24v24H0z" opacity="0.05"></path><path d="M4 6.136h4.637v2.272H4.472l-.351 1.135h4.45a2.855 2.855 0 01-.772 1.44c-.51.514-1.177.81-1.888.836H5.91l-1.272-.002c-.25-.001-.377.305-.2.484l6.276 6.338 1.586-.002-5.706-5.76a3.92 3.92 0 002-1.092 3.984 3.984 0 001.119-2.242h2.311l.352-1.135H9.76V6.136h3.267V5H4v1.136zm12.626.733l1.249 1.265h-1.25V6.869zm-1.09-1.333v8.35c0 .3.232.557.548.557a.534.534 0 00.542-.547V9.184h2.414a.586.586 0 00.537-.143.53.53 0 00-.001-.773L16.48 5.161a.585.585 0 00-.62-.12.508.508 0 00-.326.495z" fill="#282C3F"></path></g></svg>