<svg width="24" height="24" viewBox="0 0 24 24" class="SortModalIcon"><g fill="none" fill-rule="evenodd"><path d="M0 0h24v24H0z" opacity="0.05"></path><path d="M4 6.215h4.962v2.43H4.505L4.13 9.858h4.764a3.05 3.05 0 01-.827 1.539 2.99 2.99 0 01-2.022.895l-1.361-.003a.304.304 0 00-.214.519l6.717 6.779 1.697-.004-6.107-6.16a4.193 4.193 0 002.14-1.167 4.256 4.256 0 001.198-2.398h2.474l.376-1.215h-2.799v-2.43h3.496V5H4v1.215zm12.389 10.028h1.337l-1.337 1.354v-1.354zm-.818 3.309c.23.09.488.04.663-.127l3.312-3.326a.567.567 0 000-.828.627.627 0 00-.574-.152H16.39v-5.043a.571.571 0 00-.58-.585.587.587 0 00-.587.597v8.935c0 .237.12.439.35.529z" fill="#282C3F"></path></g></svg>