<?xml version="1.0" encoding="UTF-8"?>
<svg width="41px" height="54px" viewBox="0 0 41 54" version="1.1" xmlns="http://www.w3.org/2000/svg" xmlns:xlink="http://www.w3.org/1999/xlink">
    <!-- Generator: sketchtool 54.1 (76490) - https://sketchapp.com -->
    <title>9F32015E-B240-4DB1-A185-BC713E28CF41</title>
    <desc>Created with sketchtool.</desc>
    <g id="Main-UI" stroke="none" stroke-width="1" fill="none" fill-rule="evenodd">
        <g id="About-Us" transform="translate(-700.000000, -917.000000)" stroke="#EF0073" stroke-width="1.43999994">
            <g id="Group-2" transform="translate(701.000000, 918.000000)">
                <path d="M16.5697138,0.0507703796 C17.5255081,0.0123536204 18.5040343,0 19.5,0 C20.4959657,0 21.4744919,0.0123536204 22.4302862,0.0507703796 C26.0157774,4.65324171 31.2285576,7.92568474 37.2042104,9.00368281 C38.3568014,12.0723369 39,16.1777938 39,21.6666667 C39,35.1481481 32.5,45.2592593 19.5,52 C6.5,45.2592593 0,35.1481481 0,21.6666667 C2.52072398e-16,16.1777938 0.643198598,12.0723369 1.79578963,9.00368281 C7.77144236,7.92568474 12.9842226,4.65324171 16.5697138,0.0507703796 Z" id="Combined-Shape" fill="#FFFFFF"></path>
                <circle id="Oval" cx="19.5" cy="26" r="10.8333333"></circle>
                <polyline id="Path-3" points="14.625 26.4160628 17.5964286 29.4305556 23.2916667 23.6527778"></polyline>
            </g>
        </g>
    </g>
</svg>