<?xml version="1.0" encoding="UTF-8"?>
<svg width="47px" height="46px" viewBox="0 0 47 46" version="1.1" xmlns="http://www.w3.org/2000/svg" xmlns:xlink="http://www.w3.org/1999/xlink">
    <!-- Generator: sketchtool 54.1 (76490) - https://sketchapp.com -->
    <title>DC8D49C3-7D4A-47E4-9826-34606773935A</title>
    <desc>Created with sketchtool.</desc>
    <g id="Main-UI" stroke="none" stroke-width="1" fill="none" fill-rule="evenodd">
        <g id="About-Us" transform="translate(-1077.000000, -1115.000000)" stroke="#EF0073" stroke-width="1.43999994">
            <g id="Group-7" transform="translate(1078.000000, 1116.000000)">
                <rect id="Rectangle" x="15" y="8.6528959" width="8.57142857" height="19.35" rx="1.43999994"></rect>
                <path d="M41.4285714,31.5333333 L41.4285714,35.8333333 C41.4285714,36.6249415 40.7889782,37.2666667 40,37.2666667 L27.1428571,37.2666667 L22.1428571,37.2666667 L12.5,43 L12.5,37.2666667 L1.42857143,37.2666667 C0.639593215,37.2666667 0,36.6249415 0,35.8333333 L0,5.73333333 C0,4.94172519 0.639593215,4.3 1.42857143,4.3 L25,4.3" id="Path"></path>
                <path d="M22.8571429,11.5195626 C27.3809524,11.9973403 30.2380952,8.6528959 31.4285714,1.48622923 C31.9175472,-1.45740494 36.0714286,0.411229235 37.1428571,3.2778959 C37.9765943,5.50860611 37.6194515,7.53916167 36.0714286,9.36956257 L40.3571429,9.36956257 C42.7240775,9.36956257 44.6428571,11.2947381 44.6428571,13.6695626 L44.6428571,23.7028959 C44.6428571,26.0777203 42.7240775,28.0028959 40.3571429,28.0028959 L29.2872402,28.0028959 C27.7854315,28.0028959 26.4440679,27.0602365 25.9308351,25.6441419 L25.3571429,24.0612292 L22.8571429,24.0612292" id="Shape"></path>
            </g>
        </g>
    </g>
</svg>