<?xml version="1.0" encoding="UTF-8"?>
<svg width="65px" height="69px" viewBox="0 0 65 69" version="1.1" xmlns="http://www.w3.org/2000/svg" xmlns:xlink="http://www.w3.org/1999/xlink">
    <!-- Generator: sketchtool 54.1 (76490) - https://sketchapp.com -->
    <title>3B68BB46-38F6-4B4A-9885-CF01D409E9DF</title>
    <desc>Created with sketchtool.</desc>
    <g id="Main-UI" stroke="none" stroke-width="1" fill="none" fill-rule="evenodd">
        <g id="About-Us" transform="translate(-878.000000, -908.000000)" stroke="#EF0073" stroke-width="1.43999994">
            <g id="Group-3" transform="translate(879.000000, 909.000000)">
                <path d="M30.3765514,19.0913978 L49.278621,19.0913978 C52.857426,19.0913978 55.7586207,21.9925925 55.7586207,25.5713976 L55.7586207,57.9946237 L23.8965517,57.9946237 L23.8965517,25.5713976 C23.8965517,21.9925925 26.7977464,19.0913978 30.3765514,19.0913978 Z" id="Rectangle" fill="#FFFFFF"></path>
                <path d="M31.1089653,42.1451613 L48.5462071,42.1451613 C51.3297221,42.1451613 53.5862069,44.4016461 53.5862069,47.1851611 L53.5862069,57.9946237 L26.0689655,57.9946237 L26.0689655,47.1851611 C26.0689655,44.4016461 28.3254503,42.1451613 31.1089653,42.1451613 Z" id="Rectangle" fill="#FFFFFF"></path>
                <rect id="Rectangle" fill="#FFFFFF" x="26.0689655" y="50.0698925" width="27.5172414" height="7.92473118"></rect>
                <polygon id="Rectangle-Copy-8" fill="#FFFFFF" points="25.3448276 58.7150538 29.6896552 58.7150538 25.3448276 66.6397849 22.4482759 66.6397849"></polygon>
                <polygon id="Rectangle-Copy-8" fill="#FFFFFF" transform="translate(54.310345, 62.677419) scale(-1, 1) translate(-54.310345, -62.677419) " points="53.5862069 58.7150538 57.9310345 58.7150538 53.5862069 66.6397849 50.6896552 66.6397849"></polygon>
                <path d="M55.7462068,36.3817204 L60.8400001,36.3817204 C62.0329351,36.3817204 63,37.3487853 63,38.5417203 L63,52.9546239 C63,55.7381389 60.7435152,57.9946237 57.9600002,57.9946237 L53.5862069,57.9946237 L53.5862069,38.5417203 C53.5862069,37.3487853 54.5532718,36.3817204 55.7462068,36.3817204 Z" id="Rectangle-Copy-6" fill="#FFFFFF"></path>
                <path d="M18.8151723,36.3817204 L23.9089656,36.3817204 C25.1019006,36.3817204 26.0689655,37.3487853 26.0689655,38.5417203 L26.0689655,57.9946237 L21.6951722,57.9946237 C18.9116572,57.9946237 16.6551724,55.7381389 16.6551724,52.9546239 L16.6551724,38.5417203 C16.6551724,37.3487853 17.6222373,36.3817204 18.8151723,36.3817204 Z" id="Rectangle-Copy-7" fill="#FFFFFF"></path>
                <path d="M5.03999978,61.5967742 L9.44275884,61.5967742 C12.2262739,61.5967742 14.4827586,63.853259 14.4827586,66.636774 L14.4827586,66.6397849 L0,66.6397849 L8.8817842e-16,66.636774 C5.47296144e-16,63.853259 2.25648476,61.5967742 5.03999978,61.5967742 Z" id="Rectangle" fill="#FFFFFF"></path>
                <path d="M18.3042808,6.10514713 L22.7098533,6.10900537 C25.4899121,6.11144004 27.7429909,8.36450922 27.7454373,11.144568 L27.7454484,11.1572049 L13.2649259,11.1445233 L13.2649259,11.1445233 C13.2624789,8.36379975 15.514717,6.10759418 18.2954406,6.10514715 C18.2983873,6.10514456 18.301334,6.10514455 18.3042808,6.10514713 Z" id="Rectangle-Copy-9" transform="translate(20.505186, 8.631175) rotate(-10.000000) translate(-20.505186, -8.631175) "></path>
                <path d="M19.8968175,2.90760841 L19.8968175,2.90760841 C21.0970397,2.90865952 22.0697511,3.88136684 22.0708073,5.081589 L22.0714322,5.79167828 L17.7272755,5.78787383 L17.7266506,5.07778455 C17.7255968,3.88028316 18.6955092,2.90866221 19.8930106,2.90760841 C19.8942796,2.9076073 19.8955486,2.90760729 19.8968175,2.90760841 Z" id="Rectangle-Copy-9" transform="translate(19.899041, 4.349643) rotate(-10.000000) translate(-19.899041, -4.349643) "></path>
                <path d="M7.24137931,61.9569892 L7.24137931,3.59999985 C7.24137931,1.61177483 8.85315414,6.58247995e-15 10.8413792,6.21724894e-15 L19.1896552,0 L19.1896552,2.17060767 C19.1896552,2.5050021 19.1563757,2.83856649 19.0903088,3.16636948" id="Path-4"></path>
            </g>
        </g>
    </g>
</svg>