<svg id="Fill_Outline" height="512" viewBox="0 0 64 64" width="512" xmlns="http://www.w3.org/2000/svg" data-name="Fill Outline"><g id="Stroke_copy_3" data-name="Stroke copy 3"><path d="m22 11h34v50h-34z" fill="#d0d8da"/><path d="m33 15h23v-4h-34v50h34v-6h-11a16 16 0 0 1 -16-16v-20a4 4 0 0 1 4-4z" fill="#93999a"/><path d="m61 11h-44l5-8h34z" fill="#fcbc04"/><g fill="#57b7eb"><path d="m27 23h4v4h-4z"/><path d="m37 23h4v4h-4z"/><path d="m47 23h4v4h-4z"/><path d="m36 53h6v8h-6z"/><path d="m27 15h4v4h-4z"/><path d="m37 15h4v4h-4z"/><path d="m47 15h4v4h-4z"/><path d="m27 31h4v4h-4z"/><path d="m37 31h4v4h-4z"/><path d="m47 31h4v4h-4z"/><path d="m27 39h4v4h-4z"/><path d="m37 39h4v4h-4z"/><path d="m47 39h4v4h-4z"/><path d="m47 53h4v4h-4z"/></g><path d="m27 53h4v4h-4z" fill="#4891d3"/><path d="m11 44h-2l-1 17h4z" fill="#fcbc04"/><path d="m8.42 53.89a4.4 4.4 0 0 0 1.58-.65 4.4 4.4 0 0 0 1.58.65l-.58-9.89h-2z" fill="#e59730"/><path d="m14.71 42.6a4.73 4.73 0 0 0 .29-1.6 5 5 0 0 0 -10 0 4.73 4.73 0 0 0 .29 1.6 4.49 4.49 0 1 0 4.71 7.64 4.49 4.49 0 1 0 4.71-7.64z" fill="#a1d51c"/><path d="m14.5 49a4.47 4.47 0 0 1 -2.5-.76 4.5 4.5 0 0 1 -7-3.74 4.35 4.35 0 0 1 .49-2s-.21.07-.2.1a4.49 4.49 0 1 0 4.71 7.64 4.48 4.48 0 0 0 6.51-1.73 4.52 4.52 0 0 1 -2.01.49z" fill="#7ab92d"/><path d="m27 23h2v4h-2z" fill="#4891d3"/><path d="m36 61h6v-6.29a15.8 15.8 0 0 1 -4.74-1.71h-1.26z" fill="#4891d3"/><path d="m27 15v4h2a4 4 0 0 1 2-3.45v-.55z" fill="#4891d3"/><path d="m27 31h2v4h-2z" fill="#4891d3"/><path d="m27 43h2.52a16 16 0 0 1 -.52-4h-2z" fill="#4891d3"/><path d="m47 55h4v2h-4z" fill="#4891d3"/><path d="m29.22 8a4 4 0 0 1 -3.88-5h-3.34l-5 8h44l-1.87-3z" fill="#e59730"/></g><g id="Outline_copy" fill="#323232" data-name="Outline copy"><path d="m26 27a1 1 0 0 0 1 1h4a1 1 0 0 0 1-1v-4a1 1 0 0 0 -1-1h-4a1 1 0 0 0 -1 1zm2-3h2v2h-2z"/><path d="m36 27a1 1 0 0 0 1 1h4a1 1 0 0 0 1-1v-4a1 1 0 0 0 -1-1h-4a1 1 0 0 0 -1 1zm2-3h2v2h-2z"/><path d="m51 24a1 1 0 0 0 0-2h-4a1 1 0 0 0 -1 1v4a1 1 0 0 0 1 1h4a1 1 0 0 0 0-2h-3v-2z"/><path d="m61.85 10.47-5-8a1 1 0 0 0 -.85-.47h-34a1 1 0 0 0 -.85.47l-5 8a1 1 0 0 0 .85 1.53h4v49a1 1 0 0 0 1 1h34a1 1 0 0 0 1-1v-21a1 1 0 0 0 -2 0v20h-12v-7a1 1 0 0 0 -1-1h-6a1 1 0 0 0 -1 1v7h-12v-48h20a1 1 0 0 0 0-2h-24.2l3.75-6h32.9l3.75 6h-12.2a1 1 0 0 0 0 2h8v24a1 1 0 0 0 2 0v-24h4a1 1 0 0 0 .85-1.53zm-24.85 43.53h4v6h-4z"/><path d="m27 20h4a1 1 0 0 0 1-1v-4a1 1 0 0 0 -1-1h-4a1 1 0 0 0 -1 1v4a1 1 0 0 0 1 1zm1-4h2v2h-2z"/><path d="m37 20h4a1 1 0 0 0 1-1v-4a1 1 0 0 0 -1-1h-4a1 1 0 0 0 -1 1v4a1 1 0 0 0 1 1zm1-4h2v2h-2z"/><path d="m52 15a1 1 0 0 0 -1-1h-4a1 1 0 0 0 -1 1v4a1 1 0 0 0 1 1h4a1 1 0 0 0 1-1zm-2 3h-2v-2h2z"/><path d="m26 35a1 1 0 0 0 1 1h4a1 1 0 0 0 0-2h-3v-2h3a1 1 0 0 0 0-2h-4a1 1 0 0 0 -1 1z"/><path d="m36 35a1 1 0 0 0 1 1h4a1 1 0 0 0 1-1v-4a1 1 0 0 0 -1-1h-4a1 1 0 0 0 -1 1zm2-3h2v2h-2z"/><path d="m52 31a1 1 0 0 0 -1-1h-4a1 1 0 0 0 -1 1v4a1 1 0 0 0 1 1h4a1 1 0 0 0 1-1zm-2 3h-2v-2h2z"/><path d="m26 43a1 1 0 0 0 1 1h4a1 1 0 0 0 1-1v-4a1 1 0 0 0 -1-1h-4a1 1 0 0 0 -1 1zm2-3h2v2h-2z"/><path d="m36 43a1 1 0 0 0 1 1h4a1 1 0 0 0 0-2h-3v-2h3a1 1 0 0 0 0-2h-4a1 1 0 0 0 -1 1z"/><path d="m52 39a1 1 0 0 0 -1-1h-4a1 1 0 0 0 -1 1v4a1 1 0 0 0 1 1h4a1 1 0 0 0 1-1zm-2 3h-2v-2h2z"/><path d="m50 48a1 1 0 0 0 -1-1h-20a1 1 0 0 0 0 2h20a1 1 0 0 0 1-1z"/><path d="m47 58h4a1 1 0 0 0 1-1v-4a1 1 0 0 0 -1-1h-4a1 1 0 0 0 -1 1v4a1 1 0 0 0 1 1zm1-4h2v2h-2z"/><path d="m26 57a1 1 0 0 0 1 1h4a1 1 0 0 0 1-1v-4a1 1 0 0 0 -1-1h-4a1 1 0 0 0 -1 1zm2-3h2v2h-2z"/><path d="m17 45.5a1 1 0 0 0 -1 1 3.5 3.5 0 0 1 -3.5 3.5 3.44 3.44 0 0 1 -1.94-.59 1 1 0 0 0 -1.12 0 3.44 3.44 0 0 1 -1.94.59 3.49 3.49 0 0 1 -1.72-6.53 1 1 0 0 0 .45-1.19 4.13 4.13 0 0 1 -.23-1.28 4 4 0 0 1 8 0 4.13 4.13 0 0 1 -.23 1.28 1 1 0 0 0 1.89.65 6 6 0 1 0 -11.66-1.93 5.33 5.33 0 0 0 .13 1.18 5.48 5.48 0 0 0 3.37 9.82l-.5 8.94a1 1 0 0 0 .94 1.06h.06a1 1 0 0 0 1-.94l.55-9.47c.15-.06.31-.12.45-.19s.3.13.45.19l.55 9.47a1 1 0 0 0 1 .94h.06a1 1 0 0 0 .94-1.06l-.53-8.94a5.51 5.51 0 0 0 5.53-5.5 1 1 0 0 0 -1-1z"/></g></svg>