<?xml version="1.0" encoding="UTF-8"?>
<svg width="27px" height="40px" viewBox="0 0 27 40" version="1.1" xmlns="http://www.w3.org/2000/svg" xmlns:xlink="http://www.w3.org/1999/xlink">
    <!-- Generator: sketchtool 54.1 (76490) - https://sketchapp.com -->
    <title>5BB15411-5B09-4061-82E2-2050FD0DD7EC</title>
    <desc>Created with sketchtool.</desc>
    <g id="Main-UI" stroke="none" stroke-width="1" fill="none" fill-rule="evenodd">
        <g id="Product-page" transform="translate(-876.000000, -1758.000000)" stroke="#EF0073">
            <g id="Group-84" transform="translate(876.166667, 1758.000000)">
                <path d="M0.5,8.5 L0.5,39.5 L25.5,39.5 L25.5,8.5 L0.5,8.5 Z" id="Rectangle" fill="#FFFFFF"></path>
                <path d="M0.5,8.5 L25.5,8.5 L25.5,2 C25.5,1.17157288 24.8284271,0.5 24,0.5 L2,0.5 C1.17157288,0.5 0.5,1.17157288 0.5,2 L0.5,8.5 Z" id="Rectangle-Copy-22" fill="#FFFFFF"></path>
                <path d="M19,4.5 L21.7324219,4.5" id="Path-12-Copy" stroke-linecap="round" stroke-linejoin="round"></path>
                <path d="M4,4.5 L6.73242188,4.5" id="Path-12-Copy-2" stroke-linecap="round" stroke-linejoin="round"></path>
                <g id="Group-83" transform="translate(7.000000, 17.000000)" fill="#FFFFFF">
                    <circle id="Oval" cx="6" cy="6" r="6"></circle>
                    <path d="M2,6 C2,8.209139 3.790861,10 6,10 L6,10 C8.209139,10 10,8.209139 10,6" id="Path" stroke-linecap="round" stroke-linejoin="round"></path>
                </g>
            </g>
        </g>
    </g>
</svg>