<?xml version="1.0" encoding="UTF-8"?>
<svg width="28px" height="40px" viewBox="0 0 28 40" version="1.1" xmlns="http://www.w3.org/2000/svg" xmlns:xlink="http://www.w3.org/1999/xlink">
    <!-- Generator: sketchtool 54.1 (76490) - https://sketchapp.com -->
    <title>E2D3206B-71AA-4AA9-82E2-E9CED7247AEF</title>
    <desc>Created with sketchtool.</desc>
    <g id="Main-UI" stroke="none" stroke-width="1" fill="none" fill-rule="evenodd">
        <g id="Product-page" transform="translate(-319.000000, -1875.000000)" stroke="#EF0073">
            <g id="Group-89" transform="translate(320.000000, 1876.000000)">
                <path d="M6.85009766,9.5 C6.85009766,4.25329488 11.1033925,0 16.3500977,0 C21.5968028,0 25.8500977,4.25329488 25.8500977,9.5 L25.8500977,28.1623047 L25.8500977,38.5" id="Shape" stroke-linecap="round" stroke-linejoin="round"></path>
                <path d="M1.37251916,14.5 L12.3276761,14.5 C12.0750618,11.69675 9.71911893,9.5 6.85009766,9.5 C3.98107638,9.5 1.62513355,11.69675 1.37251916,14.5 Z" id="Shape"></path>
                <path d="M0,15 L14.1811523,15" id="Path-20" stroke-linecap="round" stroke-linejoin="round"></path>
                <g id="Group-72" transform="translate(1.380859, 16.731354)" stroke-linecap="round" stroke-linejoin="round">
                    <path d="M0.5,0 L0.5,2.51864615" id="Path-21"></path>
                    <path d="M0.5,8 L0.5,9.51864615" id="Path-21-Copy"></path>
                    <path d="M0.5,5 L0.5,6" id="Path-21-Copy-2"></path>
                    <path d="M3.5,1 L3.5,3.51864615" id="Path-21-Copy-5"></path>
                    <path d="M3.5,9 L3.5,10.5186462" id="Path-21-Copy-4"></path>
                    <path d="M3.5,6 L3.5,7" id="Path-21-Copy-3"></path>
                    <path d="M6.5,0 L6.5,2.51864615" id="Path-21-Copy-8"></path>
                    <path d="M6.5,8 L6.5,9.51864615" id="Path-21-Copy-7"></path>
                    <path d="M6.5,5 L6.5,6" id="Path-21-Copy-6"></path>
                    <path d="M9.5,1 L9.5,3.51864615" id="Path-21-Copy-11"></path>
                    <path d="M9.5,9 L9.5,10.5186462" id="Path-21-Copy-10"></path>
                    <path d="M9.5,6 L9.5,7" id="Path-21-Copy-9"></path>
                </g>
            </g>
        </g>
    </g>
</svg>