<?xml version="1.0" encoding="UTF-8"?>
<svg width="41px" height="48px" viewBox="0 0 41 48" version="1.1" xmlns="http://www.w3.org/2000/svg" xmlns:xlink="http://www.w3.org/1999/xlink">
    <!-- Generator: sketchtool 54.1 (76490) - https://sketchapp.com -->
    <title>A7D49321-78EE-4BF4-9921-88D4D653B603</title>
    <desc>Created with sketchtool.</desc>
    <g id="Main-UI" stroke="none" stroke-width="1" fill="none" fill-rule="evenodd">
        <g id="About-Us" transform="translate(-700.000000, -1112.000000)" stroke="#EF0073" stroke-width="1.43999994">
            <g id="Group-6" transform="translate(701.000000, 1113.000000)">
                <path d="M35.9222584,29.8748455 C37.8702605,26.8545629 39,23.2617046 39,19.40625 C39,8.68847407 30.2695526,0 19.5,0 C8.73044738,0 0,8.68847407 0,19.40625 C0,23.2523696 1.12427546,26.8371631 3.06360638,29.8528971" id="Shape" stroke-linecap="round"></path>
                <path d="M32.2143401,26.2338766 C33.3179224,24.2027917 33.9444444,21.8773351 33.9444444,19.40625 C33.9444444,11.4671567 27.4774464,5.03125 19.5,5.03125 C11.5225536,5.03125 5.05555556,11.4671567 5.05555556,19.40625 C5.05555556,21.882585 5.68474253,24.2126721 6.79270016,26.246818" id="Path" stroke-linecap="round"></path>
                <ellipse id="Oval" cx="19.5" cy="19.40625" rx="8.66666667" ry="8.625"></ellipse>
                <path d="M37.5555556,46 L1.44444444,46 C1.44444444,36.0761334 9.52819202,28.03125 19.5,28.03125 C29.471808,28.03125 37.5555556,36.0761334 37.5555556,46 Z" id="Shape"></path>
            </g>
        </g>
    </g>
</svg>