<?xml version="1.0" encoding="UTF-8"?>
<svg width="48px" height="52px" viewBox="0 0 48 52" version="1.1" xmlns="http://www.w3.org/2000/svg" xmlns:xlink="http://www.w3.org/1999/xlink">
    <!-- Generator: sketchtool 54.1 (76490) - https://sketchapp.com -->
    <title>A026D8B0-C40D-4AF1-B74A-A4D40AC4661D</title>
    <desc>Created with sketchtool.</desc>
    <g id="Main-UI" stroke="none" stroke-width="1" fill="none" fill-rule="evenodd">
        <g id="About-Us" transform="translate(-886.000000, -1107.000000)" fill="#EF0073" fill-rule="nonzero">
            <g id="cleaning" transform="translate(886.000000, 1107.000000)">
                <path d="M42.8571429,36.4 L41.5148571,36.4 C40.5735,36.4008667 39.6452143,36.6224083 38.8028571,37.0474 C37.57725,37.6633833 36.1370357,37.6633833 34.9114286,37.0474 C34.4225357,36.8048417 33.9036429,36.6298833 33.3685714,36.5274 L35.0391429,23.4 L36.8571429,23.4 C37.3305,23.4 37.7142857,23.01195 37.7142857,22.5333333 L37.7142857,19.0666667 C37.7142857,18.58805 37.3305,18.2 36.8571429,18.2 L33.4285714,18.2 L33.4285714,15.6 C33.4285714,15.3701167 33.3381429,15.1497667 33.1774286,14.9872667 L29.1428571,10.9078667 L29.1428571,8.216 L30.4422857,7.1656 L32.6614286,11.6540667 L34.1957143,10.8792667 L31.8111429,6.058 L32.8714286,5.2 L36,5.2 C36.4733571,5.2 36.8571429,4.81195 36.8571429,4.33333333 L36.8571429,0.866666667 C36.8571429,0.38805 36.4733571,0 36,0 L27.4285714,0 C23.1702857,0.0052 19.7194286,3.4944 19.7142857,7.8 C19.7142857,8.27861667 20.0980714,8.66666667 20.5714286,8.66666667 L22.2857143,8.66666667 L22.2857143,10.9078667 L19.9654286,13.2539333 C19.8047143,13.4164333 19.7142857,13.6367833 19.7142857,13.8666667 L19.7142857,18.2 L18,18.2 L18,11.2666667 C17.9987143,11.1593083 17.9775,11.05325 17.9374286,10.9538 C17.9217857,10.9201083 17.904,10.8873917 17.8842857,10.8558667 C17.8637143,10.810475 17.8396071,10.7667083 17.8122857,10.725 L14.5714286,6.63 L14.5714286,0.866666667 C14.5714286,0.38805 14.1876429,0 13.7142857,0 L8.57142857,0 C8.09807143,0 7.71428571,0.38805 7.71428571,0.866666667 L7.71428571,6.63 L4.47342857,10.725 C4.44610714,10.7667083 4.422,10.810475 4.40142857,10.8558667 C4.38171429,10.8873917 4.36392857,10.9201083 4.34828571,10.9538 C4.30821429,11.05325 4.287,11.1593083 4.28571429,11.2666667 L4.28571429,18.2 L0.857142857,18.2 C0.383785714,18.2 0,18.58805 0,19.0666667 L0,22.5333333 C0,23.01195 0.383785714,23.4 0.857142857,23.4 L2.67514286,23.4 L6.00685714,49.5109333 C6.06203571,49.9431833 6.42610714,50.266775 6.85714286,50.2666667 L27.0342857,50.2666667 C28.0063929,51.3684167 29.3968929,51.9989167 30.8571429,52 L32.1994286,52 C33.1407857,51.9991333 34.0690714,51.7775917 34.9114286,51.3526 C36.1370357,50.7366167 37.57725,50.7366167 38.8028571,51.3526 C39.6452143,51.7775917 40.5735,51.9991333 41.5148571,52 L42.8571429,52 C45.6963214,51.9971833 47.9972143,49.670725 48,46.8 L48,41.6 C47.9972143,38.729275 45.6963214,36.4028167 42.8571429,36.4 Z M33.4285714,1.73333333 L35.1428571,1.73333333 L35.1428571,3.46666667 L33.4285714,3.46666667 L33.4285714,1.73333333 Z M36,19.9333333 L36,21.6666667 L24,21.6666667 L24,19.9333333 L36,19.9333333 Z M21.4894286,6.93333333 C21.9193929,3.950375 24.4472143,1.737125 27.4285714,1.73333333 L31.7142857,1.73333333 L31.7142857,3.91733333 L27.9848571,6.93333333 L21.4894286,6.93333333 Z M27.4285714,8.66666667 L27.4285714,10.4 L24,10.4 L24,8.66666667 L27.4285714,8.66666667 Z M21.4285714,14.2254667 L23.4977143,12.1333333 L27.9308571,12.1333333 L31.7142857,15.9588 L31.7142857,18.2 L21.4285714,18.2 L21.4285714,14.2254667 Z M20.5714286,19.9333333 L22.2857143,19.9333333 L22.2857143,26 C22.2838929,26.3300917 22.46775,26.63245 22.7597143,26.78 L27.9025714,29.38 C28.1533929,29.5050167 28.3434643,29.7272083 28.4297143,29.9962 C28.5185357,30.2849083 28.4876786,30.5976667 28.344,30.8628667 C28.0973571,31.3632583 27.4962857,31.5667083 27.0013929,31.3172167 C27.0006429,31.3168917 26.9998929,31.3164583 26.9991429,31.3161333 L23.5191429,29.5568 C23.0937857,29.3466333 22.5805714,29.52495 22.3727143,29.9550333 C22.3158214,30.0729 22.2860357,30.20225 22.2857143,30.3333333 L22.2857143,39 C22.2857143,39.9573417 21.51825,40.7333333 20.5714286,40.7333333 L20.5714286,32.9333333 L18.8571429,32.9333333 L18.8571429,40.7333333 L17.1428571,40.7333333 L17.1428571,32.9333333 L15.4285714,32.9333333 L15.4285714,40.7333333 L13.7142857,40.7333333 L13.7142857,32.9333333 L12,32.9333333 L12,40.7333333 C11.0531786,40.7333333 10.2857143,39.9573417 10.2857143,39 L10.2857143,19.9333333 L20.5714286,19.9333333 Z M9.42857143,1.73333333 L12.8571429,1.73333333 L12.8571429,6.06666667 L9.42857143,6.06666667 L9.42857143,1.73333333 Z M8.98285714,7.8 L13.3028571,7.8 L15.36,10.4 L6.92571429,10.4 L8.98285714,7.8 Z M6,12.1333333 L16.2857143,12.1333333 L16.2857143,18.2 L6,18.2 L6,12.1333333 Z M1.71428571,21.6666667 L1.71428571,19.9333333 L8.57142857,19.9333333 L8.57142857,21.6666667 L1.71428571,21.6666667 Z M25.7142857,41.6 L25.7142857,46.8 C25.7157857,47.39085 25.81725,47.9770417 26.0142857,48.5333333 L7.61057143,48.5333333 L4.40314286,23.4 L8.57142857,23.4 L8.57142857,39 C8.57142857,40.914575 10.1064643,42.4666667 12,42.4666667 L20.5714286,42.4666667 C22.4649643,42.4666667 24,40.914575 24,39 L24,31.7356 L26.2388571,32.8674667 C27.59175,33.5426 29.22975,32.981 29.8974643,31.613075 C29.90025,31.6074417 29.9029286,31.6017 29.9057143,31.5960667 C30.23775,30.930575 30.2942143,30.1587 30.0625714,29.4510667 C29.8341429,28.7431083 29.3337857,28.1578917 28.674,27.8269333 L24,25.4644 L24,23.4 L33.3111429,23.4 L31.6517143,36.4 L30.8571429,36.4 C28.0179643,36.4028167 25.7170714,38.729275 25.7142857,41.6 Z M46.2857143,46.8 C46.2857143,48.714575 44.7506786,50.2666667 42.8571429,50.2666667 L41.5148571,50.2666667 C40.83975,50.2656917 40.1740714,50.1067667 39.57,49.8021333 C37.8610714,48.9435917 35.8532143,48.9435917 34.1442857,49.8021333 C33.5402143,50.1067667 32.8745357,50.2656917 32.1994286,50.2666667 L30.8571429,50.2666667 C28.9636071,50.2666667 27.4285714,48.714575 27.4285714,46.8 L27.4285714,45.4653333 C28.3685357,46.3240917 29.5902857,46.799675 30.8571429,46.8 L32.1994286,46.8 C33.1407857,46.7991333 34.0690714,46.5775917 34.9114286,46.1526 C36.1370357,45.5366167 37.57725,45.5366167 38.8028571,46.1526 C39.6452143,46.5775917 40.5735,46.7991333 41.5148571,46.8 L42.8571429,46.8 C44.124,46.799675 45.34575,46.3240917 46.2857143,45.4653333 L46.2857143,46.8 Z M42.8571429,45.0666667 L41.5148571,45.0666667 C40.83975,45.0656917 40.1740714,44.9067667 39.57,44.6021333 C37.8610714,43.7435917 35.8532143,43.7435917 34.1442857,44.6021333 C33.5402143,44.9067667 32.8745357,45.0656917 32.1994286,45.0666667 L30.8571429,45.0666667 C28.9636071,45.0666667 27.4285714,43.514575 27.4285714,41.6 C27.4285714,39.685425 28.9636071,38.1333333 30.8571429,38.1333333 L32.1994286,38.1333333 C32.8745357,38.1343083 33.5402143,38.2932333 34.1442857,38.5978667 C35.8533214,39.4558667 37.8609643,39.4558667 39.57,38.5978667 C40.1740714,38.2932333 40.83975,38.1343083 41.5148571,38.1333333 L42.8571429,38.1333333 C44.7506786,38.1333333 46.2857143,39.685425 46.2857143,41.6 C46.2857143,43.514575 44.7506786,45.0666667 42.8571429,45.0666667 Z" id="Shape"></path>
            </g>
        </g>
    </g>
</svg>