<?xml version="1.0" encoding="UTF-8"?>
<svg width="40px" height="46px" viewBox="0 0 40 46" version="1.1" xmlns="http://www.w3.org/2000/svg" xmlns:xlink="http://www.w3.org/1999/xlink">
    <!-- Generator: sketchtool 54.1 (76490) - https://sketchapp.com -->
    <title>85089E57-0C3F-4DB6-8DBE-72B326B7B7F9</title>
    <desc>Created with sketchtool.</desc>
    <g id="Main-UI" stroke="none" stroke-width="1" fill="none" fill-rule="evenodd">
        <g id="About-Us" transform="translate(-1080.000000, -918.000000)" fill="#EF0073" fill-rule="nonzero">
            <g id="investment" transform="translate(1080.000000, 918.000000)">
                <path d="M36.0095,18.5614035 L35.2095,18.5614035 C34.7347,18.5639254 34.2666,18.6742851 33.8399,18.8842105 L35.7375,8.92642105 L36.7943,3.38059649 C36.8778,2.94289035 36.5938,2.5198114 36.1599,2.43557895 C36.1104,2.42599561 36.06,2.42105263 36.0095,2.42105263 L16.8095,2.42105263 C16.3677,2.42105263 16.0095,2.78239474 16.0095,3.22807018 C16.0095,3.27931579 16.0143,3.33035965 16.0239,3.38059649 L17.0807,8.92642105 L18.9799,18.8842105 C18.5529,18.6741842 18.0845,18.5638246 17.6095,18.5614035 L13.3191,18.5614035 C12.8712,18.5606974 12.4281,18.6555219 12.0191,18.8398246 L6.4095,21.3544912 L6.4095,20.9824561 C6.4095,20.5367807 6.0513,20.1754386 5.6095,20.1754386 L0.8095,20.1754386 C0.3677,20.1754386 0.00950000004,20.5367807 0.00950000004,20.9824561 L0.00950000004,45.1929825 C0.00950000004,45.6386579 0.3677,46 0.8095,46 L5.6095,46 C6.0513,46 6.4095,45.6386579 6.4095,45.1929825 L6.4095,44.3859649 L25.8839,44.3859649 C30.5328,44.3988772 34.9936,42.5349693 38.2719,39.2097544 C38.8743,38.6057018 39.2119,37.7835526 39.2095,36.9267018 L39.2095,21.7894737 C39.2095,20.0066711 37.7769,18.5614035 36.0095,18.5614035 Z M4.8095,44.3859649 L1.6095,44.3859649 L1.6095,21.7894737 L4.8095,21.7894737 L4.8095,44.3859649 Z M35.0415,4.03508772 L34.3295,7.76350877 C32.7265,7.15753947 31.5638,5.73749123 31.2767,4.03508772 L35.0415,4.03508772 Z M17.7775,4.03508772 L21.5423,4.03508772 C21.2552,5.73749123 20.0925,7.15753947 18.4895,7.76350877 L17.7775,4.03508772 Z M18.7927,9.36140351 C21.1448,8.58575877 22.8429,6.51172368 23.1535,4.03508772 L29.6655,4.03508772 C29.9761,6.51172368 31.6742,8.58575877 34.0263,9.36140351 L31.4199,23.0306667 C31.1365,23.2699474 30.7791,23.4018947 30.4095,23.4035088 L22.4095,23.4035088 C22.0399,23.4019956 21.6825,23.2700482 21.3991,23.0306667 L18.7927,9.36140351 Z M37.6095,24.6648772 C35.685,26.508307 33.242,27.7055175 30.6159,28.0922807 L23.8959,29.0607018 L24.1223,30.6577895 L30.8423,29.6893684 C33.3084,29.3256053 35.6395,28.3251053 37.6095,26.7849123 L37.6095,28.6999649 C35.685,30.5433947 33.242,31.7406053 30.6159,32.1273684 L23.8959,33.0957895 L24.1223,34.6928772 L30.8423,33.7244561 C33.3084,33.360693 35.6395,32.360193 37.6095,30.82 L37.6095,32.7350526 C35.685,34.5784825 33.242,35.775693 30.6159,36.1624561 L23.8959,37.1308772 L24.1223,38.7279649 L30.8423,37.7595439 C33.3084,37.3957807 35.6395,36.3952807 37.6095,34.8550877 L37.6095,36.9275088 C37.6106,37.3557325 37.4418,37.7667061 37.1407,38.0686316 C34.1617,41.0901053 30.1083,42.7836316 25.8839,42.7719298 L6.4095,42.7719901 L6.4095,23.1210526 L12.6703,20.3142456 C12.8744,20.2222456 13.0955,20.1749342 13.3191,20.1754386 L17.6095,20.1754386 C18.4932,20.1754386 19.2095,20.8980219 19.2095,21.7894737 C19.2095,23.5722763 20.6422,25.0175439 22.4095,25.0175439 L30.4095,25.0175439 C32.1768,25.0175439 33.6095,23.5722763 33.6095,21.7894737 C33.6095,20.8980219 34.3258,20.1754386 35.2095,20.1754386 L36.0095,20.1754386 C36.8932,20.1754386 37.6095,20.8980219 37.6095,21.7894737 L37.6095,24.6648772 Z" id="Shape"></path>
                <path d="M26.4095,14.5263158 C24.2004,14.5263158 22.4095,16.3329254 22.4095,18.5614035 C22.4121,20.7887719 24.2015,22.5938684 26.4095,22.5964912 C28.6186,22.5964912 30.4095,20.7898816 30.4095,18.5614035 C30.4095,16.3329254 28.6187,14.5263158 26.4095,14.5263158 Z M26.4095,20.9824561 C25.084,20.9824561 24.0095,19.8985307 24.0095,18.5614035 C24.0095,17.2242763 25.084,16.1403509 26.4095,16.1403509 C27.735,16.1403509 28.8095,17.2242763 28.8095,18.5614035 C28.8095,19.8985307 27.735,20.9824561 26.4095,20.9824561 Z" id="Shape"></path>
                <polygon id="Rectangle" transform="translate(37.608408, 10.490550) rotate(-77.473057) translate(-37.608408, -10.490550) " points="30.1725947 9.70391398 45.0471934 9.67651602 45.0442216 11.2771859 30.169623 11.3045839"></polygon>
                <path d="M20.0095,0 L12.8095,0 C12.3677,0 12.0095,0.361241228 12.0095,0.807017544 C12.0095,0.869763158 12.0168,0.932407895 12.0311,0.993438596 L16.0311,17.940807 L17.5871,17.5671579 L13.8223,1.61403509 L20.0095,1.61403509 L20.0095,0 L20.0095,0 Z" id="Path"></path>
            </g>
        </g>
    </g>
</svg>